<svg width="128" height="51" viewBox="0 0 128 51" fill="none" xmlns="http://www.w3.org/2000/svg">
<path d="M5.156 34.18C3.668 34.18 2.48 33.64 1.592 32.56C0.704 31.48 0.26 30.064 0.26 28.312C0.26 26.392 0.704 24.58 1.592 22.876C2.48 21.148 3.656 19.768 5.12 18.736C6.608 17.68 8.18 17.152 9.836 17.152C10.364 17.152 10.712 17.26 10.88 17.476C11.072 17.668 11.228 18.028 11.348 18.556C11.852 18.46 12.38 18.412 12.932 18.412C14.108 18.412 14.696 18.832 14.696 19.672C14.696 20.176 14.516 21.376 14.156 23.272C13.604 26.032 13.328 27.952 13.328 29.032C13.328 29.392 13.412 29.68 13.58 29.896C13.772 30.112 14.012 30.22 14.3 30.22C14.756 30.22 15.308 29.932 15.956 29.356C16.604 28.756 17.48 27.796 18.584 26.476C18.872 26.14 19.196 25.972 19.556 25.972C19.868 25.972 20.108 26.116 20.276 26.404C20.468 26.692 20.564 27.088 20.564 27.592C20.564 28.552 20.336 29.296 19.88 29.824C18.896 31.048 17.852 32.08 16.748 32.92C15.644 33.76 14.576 34.18 13.544 34.18C12.752 34.18 12.02 33.916 11.348 33.388C10.7 32.836 10.208 32.092 9.872 31.156C8.624 33.172 7.052 34.18 5.156 34.18ZM6.452 30.544C6.98 30.544 7.484 30.232 7.964 29.608C8.444 28.984 8.792 28.156 9.008 27.124L10.34 20.5C9.332 20.524 8.396 20.908 7.532 21.652C6.692 22.372 6.02 23.332 5.516 24.532C5.012 25.732 4.76 27.004 4.76 28.348C4.76 29.092 4.904 29.644 5.192 30.004C5.504 30.364 5.924 30.544 6.452 30.544ZM20.1942 34.18C19.2822 34.18 18.6342 33.7 18.2502 32.74C17.8902 31.78 17.7102 30.244 17.7102 28.132C17.7102 25.012 18.1542 22.048 19.0422 19.24C19.2582 18.544 19.6062 18.04 20.0862 17.728C20.5902 17.392 21.2862 17.224 22.1742 17.224C22.6542 17.224 22.9902 17.284 23.1822 17.404C23.3742 17.524 23.4702 17.752 23.4702 18.088C23.4702 18.472 23.2902 19.336 22.9302 20.68C22.6902 21.64 22.4982 22.48 22.3542 23.2C22.2102 23.92 22.0902 24.808 21.9942 25.864C22.7862 23.8 23.6742 22.12 24.6582 20.824C25.6422 19.528 26.6022 18.604 27.5382 18.052C28.4982 17.5 29.3742 17.224 30.1662 17.224C31.7262 17.224 32.5062 18.004 32.5062 19.564C32.5062 20.5 32.2422 22.192 31.7142 24.64C31.2582 26.728 31.0302 28.108 31.0302 28.78C31.0302 29.74 31.3782 30.22 32.0742 30.22C32.5542 30.22 33.1182 29.932 33.7662 29.356C34.4382 28.756 35.3262 27.796 36.4302 26.476C36.7182 26.14 37.0422 25.972 37.4022 25.972C37.7142 25.972 37.9542 26.116 38.1222 26.404C38.3142 26.692 38.4102 27.088 38.4102 27.592C38.4102 28.552 38.1822 29.296 37.7262 29.824C36.6942 31.096 35.5782 32.14 34.3782 32.956C33.2022 33.772 31.8582 34.18 30.3462 34.18C29.1222 34.18 28.1982 33.832 27.5742 33.136C26.9502 32.416 26.6382 31.384 26.6382 30.04C26.6382 29.368 26.8062 28.168 27.1422 26.44C27.4542 24.928 27.6102 23.884 27.6102 23.308C27.6102 22.924 27.4782 22.732 27.2142 22.732C26.9022 22.732 26.4582 23.14 25.8822 23.956C25.3302 24.748 24.7542 25.804 24.1542 27.124C23.5782 28.444 23.1102 29.836 22.7502 31.3C22.4862 32.428 22.1742 33.196 21.8142 33.604C21.4782 33.988 20.9382 34.18 20.1942 34.18ZM40.2135 14.848C39.2055 14.848 38.4495 14.62 37.9455 14.164C37.4415 13.684 37.1895 13.024 37.1895 12.184C37.1895 11.344 37.5135 10.648 38.1615 10.096C38.8335 9.52 39.6615 9.232 40.6455 9.232C41.5335 9.232 42.2535 9.448 42.8055 9.88C43.3575 10.312 43.6335 10.924 43.6335 11.716C43.6335 12.676 43.3215 13.444 42.6975 14.02C42.0735 14.572 41.2455 14.848 40.2135 14.848ZM39.9255 34.18C38.3655 34.18 37.2255 33.628 36.5055 32.524C35.8095 31.42 35.4615 29.956 35.4615 28.132C35.4615 27.052 35.5935 25.672 35.8575 23.992C36.1455 22.288 36.5055 20.704 36.9375 19.24C37.1535 18.472 37.4415 17.944 37.8015 17.656C38.1615 17.368 38.7375 17.224 39.5295 17.224C40.7535 17.224 41.3655 17.632 41.3655 18.448C41.3655 19.048 41.1375 20.44 40.6815 22.624C40.1055 25.264 39.8175 27.052 39.8175 27.988C39.8175 28.708 39.9135 29.26 40.1055 29.644C40.2975 30.028 40.6215 30.22 41.0775 30.22C41.5095 30.22 42.0495 29.92 42.6975 29.32C43.3455 28.72 44.2095 27.772 45.2895 26.476C45.5775 26.14 45.9015 25.972 46.2615 25.972C46.5735 25.972 46.8135 26.116 46.9815 26.404C47.1735 26.692 47.2695 27.088 47.2695 27.592C47.2695 28.552 47.0415 29.296 46.5855 29.824C44.2095 32.728 41.9895 34.18 39.9255 34.18ZM51.0529 34.972C49.8049 34.972 48.8449 34.684 48.1729 34.108C47.5249 33.532 47.2009 32.884 47.2009 32.164C47.2009 31.54 47.4289 31 47.8849 30.544C48.3409 30.088 49.0129 29.86 49.9009 29.86C50.2129 29.86 50.5729 29.896 50.9809 29.968C51.4129 30.016 51.7369 30.052 51.9529 30.076C51.9289 29.452 51.7849 28.864 51.5209 28.312C51.2809 27.76 50.9689 27.232 50.5849 26.728C50.2009 26.2 49.8409 25.744 49.5049 25.36C48.7609 26.776 48.0169 27.952 47.2729 28.888C46.5529 29.824 45.7609 30.712 44.8969 31.552C44.4649 31.984 44.0089 32.2 43.5289 32.2C43.1449 32.2 42.8329 32.068 42.5929 31.804C42.3529 31.516 42.2329 31.168 42.2329 30.76C42.2329 30.28 42.4009 29.836 42.7369 29.428L43.2049 28.852C44.5249 27.22 45.5209 25.876 46.1929 24.82C46.6009 24.124 47.0809 23.2 47.6329 22.048C48.1849 20.872 48.7249 19.66 49.2529 18.412C49.7089 17.356 50.6569 16.828 52.0969 16.828C52.7689 16.828 53.2369 16.888 53.5009 17.008C53.7649 17.128 53.8969 17.32 53.8969 17.584C53.8969 17.728 53.8489 17.956 53.7529 18.268C53.6569 18.58 53.5249 18.892 53.3569 19.204C52.9249 20.068 52.7089 20.8 52.7089 21.4C52.7089 21.76 52.8289 22.156 53.0689 22.588C53.3329 23.02 53.7289 23.56 54.2569 24.208C55.0249 25.216 55.6009 26.08 55.9849 26.8C56.3929 27.496 56.5969 28.264 56.5969 29.104C56.5969 29.344 56.5729 29.68 56.5249 30.112C57.7009 29.656 59.0809 28.444 60.6649 26.476C60.9529 26.14 61.2769 25.972 61.6369 25.972C61.9489 25.972 62.1889 26.116 62.3569 26.404C62.5489 26.692 62.6449 27.088 62.6449 27.592C62.6449 28.504 62.4169 29.248 61.9609 29.824C60.7609 31.312 59.6089 32.332 58.5049 32.884C57.4249 33.412 56.0809 33.7 54.4729 33.748C53.5129 34.564 52.3729 34.972 51.0529 34.972ZM78.9442 25.972C79.2562 25.972 79.4962 26.116 79.6642 26.404C79.8562 26.692 79.9522 27.088 79.9522 27.592C79.9522 28.552 79.7242 29.296 79.2682 29.824C78.2362 31.096 77.1202 32.14 75.9202 32.956C74.7442 33.772 73.4002 34.18 71.8882 34.18C70.6162 34.18 69.5842 33.724 68.7922 32.812C67.4242 33.7 65.9962 34.156 64.5082 34.18C64.1962 38.812 63.4882 42.676 62.3842 45.772C61.2802 48.892 59.6602 50.452 57.5242 50.452C56.2282 50.452 55.2682 49.984 54.6442 49.048C54.0202 48.112 53.7082 46.816 53.7082 45.16C53.7082 42.808 54.2482 40.06 55.3282 36.916C56.4082 33.796 58.0762 30.352 60.3322 26.584C60.3322 23.08 60.3082 20.644 60.2602 19.276C60.2362 18.58 60.5122 18.028 61.0882 17.62C61.6642 17.212 62.3842 17.008 63.2482 17.008C63.7522 17.008 64.1122 17.116 64.3282 17.332C64.5682 17.524 64.7002 17.92 64.7242 18.52C64.7242 19.12 64.7362 19.564 64.7602 19.852C65.5282 18.892 66.2842 18.208 67.0282 17.8C67.7722 17.368 68.5642 17.152 69.4042 17.152C70.7482 17.152 71.8402 17.692 72.6802 18.772C73.5442 19.852 73.9762 21.268 73.9762 23.02C73.9762 24.292 73.7722 25.528 73.3642 26.728C72.9562 27.928 72.3922 29.02 71.6722 30.004C72.1762 30.148 72.5962 30.22 72.9322 30.22C73.7242 30.22 74.4802 29.932 75.2002 29.356C75.9202 28.78 76.8442 27.82 77.9722 26.476C78.2602 26.14 78.5842 25.972 78.9442 25.972ZM64.6882 30.724C65.5522 30.532 66.3442 30.064 67.0642 29.32C67.8082 28.552 68.3962 27.616 68.8282 26.512C69.2602 25.384 69.4762 24.208 69.4762 22.984C69.4762 22.264 69.3322 21.724 69.0442 21.364C68.7562 20.98 68.3722 20.788 67.8922 20.788C67.0282 20.788 65.9842 21.7 64.7602 23.524C64.7362 24.58 64.7242 26.128 64.7242 28.168C64.7242 29.272 64.7122 30.124 64.6882 30.724ZM57.8122 46.924C58.4602 46.924 59.0002 45.508 59.4322 42.676C59.8642 39.868 60.1402 36.364 60.2602 32.164C59.2282 34.564 58.4122 36.856 57.8122 39.04C57.2122 41.224 56.9122 43.06 56.9122 44.548C56.9122 45.316 57.0082 45.904 57.2002 46.312C57.3682 46.72 57.5722 46.924 57.8122 46.924ZM81.4802 34.18C79.9922 34.18 78.8042 33.64 77.9162 32.56C77.0282 31.48 76.5842 30.064 76.5842 28.312C76.5842 26.392 77.0282 24.58 77.9162 22.876C78.8042 21.148 79.9802 19.768 81.4442 18.736C82.9322 17.68 84.5042 17.152 86.1602 17.152C86.6882 17.152 87.0362 17.26 87.2042 17.476C87.3962 17.668 87.5522 18.028 87.6722 18.556C88.1762 18.46 88.7042 18.412 89.2562 18.412C90.4322 18.412 91.0202 18.832 91.0202 19.672C91.0202 20.176 90.8402 21.376 90.4802 23.272C89.9282 26.032 89.6522 27.952 89.6522 29.032C89.6522 29.392 89.7362 29.68 89.9042 29.896C90.0962 30.112 90.3362 30.22 90.6242 30.22C91.0802 30.22 91.6322 29.932 92.2802 29.356C92.9282 28.756 93.8042 27.796 94.9082 26.476C95.1962 26.14 95.5202 25.972 95.8802 25.972C96.1922 25.972 96.4322 26.116 96.6002 26.404C96.7922 26.692 96.8882 27.088 96.8882 27.592C96.8882 28.552 96.6602 29.296 96.2042 29.824C95.2202 31.048 94.1762 32.08 93.0722 32.92C91.9682 33.76 90.9002 34.18 89.8682 34.18C89.0762 34.18 88.3442 33.916 87.6722 33.388C87.0242 32.836 86.5322 32.092 86.1962 31.156C84.9482 33.172 83.3762 34.18 81.4802 34.18ZM82.7762 30.544C83.3042 30.544 83.8082 30.232 84.2882 29.608C84.7682 28.984 85.1162 28.156 85.3322 27.124L86.6642 20.5C85.6562 20.524 84.7202 20.908 83.8562 21.652C83.0162 22.372 82.3442 23.332 81.8402 24.532C81.3362 25.732 81.0842 27.004 81.0842 28.348C81.0842 29.092 81.2282 29.644 81.5162 30.004C81.8282 30.364 82.2482 30.544 82.7762 30.544ZM96.5184 34.18C95.6064 34.18 94.9584 33.7 94.5744 32.74C94.2144 31.78 94.0344 30.244 94.0344 28.132C94.0344 25.012 94.4784 22.048 95.3664 19.24C95.5824 18.544 95.9304 18.04 96.4104 17.728C96.9144 17.392 97.6104 17.224 98.4984 17.224C98.9784 17.224 99.3144 17.284 99.5064 17.404C99.6984 17.524 99.7944 17.752 99.7944 18.088C99.7944 18.472 99.6144 19.336 99.2544 20.68C99.0144 21.64 98.8224 22.48 98.6784 23.2C98.5344 23.92 98.4144 24.808 98.3184 25.864C99.1104 23.8 99.9984 22.12 100.982 20.824C101.966 19.528 102.926 18.604 103.862 18.052C104.822 17.5 105.698 17.224 106.49 17.224C108.05 17.224 108.83 18.004 108.83 19.564C108.83 19.876 108.722 20.632 108.506 21.832C108.314 22.792 108.218 23.392 108.218 23.632C108.218 24.472 108.518 24.892 109.118 24.892C109.79 24.892 110.654 24.364 111.71 23.308C112.022 22.996 112.346 22.84 112.682 22.84C112.994 22.84 113.234 22.984 113.402 23.272C113.594 23.536 113.69 23.896 113.69 24.352C113.69 25.24 113.45 25.936 112.97 26.44C112.298 27.136 111.506 27.736 110.594 28.24C109.706 28.72 108.758 28.96 107.75 28.96C106.478 28.96 105.506 28.636 104.834 27.988C104.186 27.34 103.862 26.464 103.862 25.36C103.862 25 103.898 24.64 103.97 24.28C104.018 23.8 104.042 23.476 104.042 23.308C104.042 22.924 103.91 22.732 103.646 22.732C103.286 22.732 102.806 23.14 102.206 23.956C101.63 24.748 101.054 25.804 100.478 27.124C99.9024 28.444 99.4344 29.836 99.0744 31.3C98.8104 32.428 98.4984 33.196 98.1384 33.604C97.8024 33.988 97.2624 34.18 96.5184 34.18ZM125.645 30.256C126.629 30.448 127.121 30.988 127.121 31.876C127.121 32.476 126.845 33.016 126.293 33.496C125.765 33.952 124.997 34.18 123.989 34.18C122.261 34.18 120.845 33.652 119.741 32.596C118.661 31.516 118.121 30.112 118.121 28.384C118.121 27.448 118.601 26.776 119.561 26.368C120.617 25.912 121.373 25.432 121.829 24.928C122.285 24.4 122.513 23.764 122.513 23.02C122.513 22.588 122.417 22.264 122.225 22.048C122.057 21.832 121.841 21.724 121.577 21.724C120.929 21.724 120.209 22.192 119.417 23.128C118.649 24.064 117.929 25.276 117.257 26.764C116.585 28.228 116.057 29.74 115.673 31.3C115.409 32.428 115.097 33.196 114.737 33.604C114.401 33.988 113.861 34.18 113.117 34.18C112.373 34.18 111.821 33.916 111.461 33.388C111.125 32.836 110.897 31.996 110.777 30.868C110.657 29.74 110.597 28.084 110.597 25.9C110.597 22.204 110.969 18.352 111.713 14.344C112.481 10.336 113.597 6.976 115.061 4.264C116.549 1.528 118.325 0.159998 120.389 0.159998C121.493 0.159998 122.381 0.639998 123.053 1.6C123.749 2.536 124.097 3.76 124.097 5.272C124.097 7.696 123.389 10.216 121.973 12.832C120.557 15.424 118.253 18.46 115.061 21.94C114.989 23.188 114.953 24.472 114.953 25.792C116.105 22.792 117.425 20.62 118.913 19.276C120.401 17.908 121.793 17.224 123.089 17.224C124.289 17.224 125.249 17.632 125.969 18.448C126.713 19.264 127.085 20.272 127.085 21.472C127.085 22.792 126.749 24.004 126.077 25.108C125.405 26.212 124.253 27.196 122.621 28.06C122.765 28.78 123.053 29.284 123.485 29.572C123.941 29.836 124.661 30.064 125.645 30.256ZM119.633 3.724C119.201 3.724 118.721 4.348 118.193 5.596C117.665 6.82 117.149 8.488 116.645 10.6C116.165 12.688 115.769 14.968 115.457 17.44C116.945 15.688 118.169 13.78 119.129 11.716C120.113 9.652 120.605 7.78 120.605 6.1C120.605 5.332 120.521 4.744 120.353 4.336C120.185 3.928 119.945 3.724 119.633 3.724Z" fill="white"/>
</svg>
