<svg width="36" height="36" viewBox="0 0 36 36" fill="none" xmlns="http://www.w3.org/2000/svg">
<circle cx="18" cy="18" r="18" transform="rotate(90 18 18)" fill="url(#paint0_linear)"/>
<path d="M18 3.46875C9.97266 3.46875 3.46875 9.97266 3.46875 18C3.46875 26.0273 9.97266 32.5312 18 32.5312C26.0273 32.5312 32.5312 26.0273 32.5312 18C32.5312 9.97266 26.0273 3.46875 18 3.46875ZM25.125 21.8145C25.4004 22.0898 25.4004 22.5352 25.125 22.8105L22.8047 25.125C22.5293 25.4004 22.084 25.4004 21.8086 25.125L18 21.2812L14.1855 25.125C13.9102 25.4004 13.4648 25.4004 13.1895 25.125L10.875 22.8047C10.5996 22.5293 10.5996 22.084 10.875 21.8086L14.7188 18L10.875 14.1855C10.5996 13.9102 10.5996 13.4648 10.875 13.1895L13.1953 10.8691C13.4707 10.5938 13.916 10.5938 14.1914 10.8691L18 14.7188L21.8145 10.875C22.0898 10.5996 22.5352 10.5996 22.8105 10.875L25.1309 13.1953C25.4062 13.4707 25.4062 13.916 25.1309 14.1914L21.2812 18L25.125 21.8145Z" fill="white"/>
<defs>
<linearGradient id="paint0_linear" x1="0" y1="18" x2="36" y2="18" gradientUnits="userSpaceOnUse">
<stop stop-color="#E83A63"/>
<stop offset="1" stop-color="#FF819E"/>
</linearGradient>
</defs>
</svg>
