<svg width="36" height="36" viewBox="0 0 36 36" fill="none" xmlns="http://www.w3.org/2000/svg">
<path d="M18 36C8.05887 36 -1.22135e-06 27.9411 -7.86805e-07 18C-3.52265e-07 8.05887 8.05887 -1.22135e-06 18 -7.86805e-07C27.9411 -3.52265e-07 36 8.05887 36 18C36 27.9411 27.9411 36 18 36Z" fill="url(#paint0_linear)"/>
<g clip-path="url(#clip0)">
<path d="M25.2528 12.2008C23.3262 10.5591 20.461 10.8544 18.6926 12.679L18.0001 13.3926L17.3075 12.679C15.5426 10.8544 12.6739 10.5591 10.7473 12.2008C8.53952 14.0852 8.4235 17.4673 10.3993 19.5098L17.202 26.5341C17.6415 26.9876 18.3551 26.9876 18.7946 26.5341L25.5973 19.5098C27.5766 17.4673 27.4606 14.0852 25.2528 12.2008Z" fill="white"/>
</g>
<defs>
<linearGradient id="paint0_linear" x1="18" y1="-1.5" x2="18" y2="38" gradientUnits="userSpaceOnUse">
<stop stop-color="#4DE1E8"/>
<stop offset="1" stop-color="#76FBCB"/>
<stop offset="1" stop-color="#76FBCB"/>
</linearGradient>
<clipPath id="clip0">
<rect x="9" y="10" width="18" height="18" fill="white"/>
</clipPath>
</defs>
</svg>
