<svg width="355" height="168" viewBox="0 0 355 168" fill="none" xmlns="http://www.w3.org/2000/svg">
<g clip-path="url(#clip0)">
<path d="M223.428 16.3491L222.922 15.8218C213.219 5.9077 198.031 4.91629 187.147 12.6999L194.382 34.5108L174.132 48.0108L184.257 75.0108L153.882 44.6358L174.132 31.1358L168.099 12.8897C157.194 4.91629 141.858 5.84442 132.092 15.8429L131.586 16.3491C121.313 26.8538 120.87 43.5811 130.046 54.7819L174.786 100.893C176.283 102.433 178.709 102.433 180.207 100.893L224.968 54.7608C234.144 43.5811 233.701 26.8538 223.428 16.3491V16.3491Z" fill="#CCCCCC"/>
</g>
<path d="M101.27 135.066V130.152L96.9678 122.502H100.028L102.728 127.506H102.764L105.356 122.502H108.326L104.024 130.134V135.066H101.27ZM112.499 135.282C111.803 135.282 111.179 135.168 110.627 134.94C110.087 134.712 109.625 134.382 109.241 133.95C108.869 133.518 108.581 132.996 108.377 132.384C108.173 131.772 108.071 131.088 108.071 130.332C108.071 129.576 108.173 128.892 108.377 128.28C108.581 127.668 108.869 127.152 109.241 126.732C109.625 126.3 110.087 125.97 110.627 125.742C111.179 125.514 111.803 125.4 112.499 125.4C113.195 125.4 113.813 125.514 114.353 125.742C114.905 125.97 115.367 126.3 115.739 126.732C116.123 127.152 116.417 127.668 116.621 128.28C116.825 128.892 116.927 129.576 116.927 130.332C116.927 131.088 116.825 131.772 116.621 132.384C116.417 132.996 116.123 133.518 115.739 133.95C115.367 134.382 114.905 134.712 114.353 134.94C113.813 135.168 113.195 135.282 112.499 135.282ZM112.499 133.176C113.027 133.176 113.435 133.014 113.723 132.69C114.011 132.366 114.155 131.904 114.155 131.304V129.378C114.155 128.778 114.011 128.316 113.723 127.992C113.435 127.668 113.027 127.506 112.499 127.506C111.971 127.506 111.563 127.668 111.275 127.992C110.987 128.316 110.843 128.778 110.843 129.378V131.304C110.843 131.904 110.987 132.366 111.275 132.69C111.563 133.014 111.971 133.176 112.499 133.176ZM124.405 133.482H124.315C124.231 133.722 124.117 133.95 123.973 134.166C123.841 134.382 123.667 134.574 123.451 134.742C123.235 134.91 122.977 135.042 122.677 135.138C122.389 135.234 122.053 135.282 121.669 135.282C120.697 135.282 119.959 134.964 119.455 134.328C118.963 133.68 118.717 132.756 118.717 131.556V125.616H121.381V131.322C121.381 131.898 121.483 132.342 121.687 132.654C121.891 132.966 122.239 133.122 122.731 133.122C122.935 133.122 123.139 133.092 123.343 133.032C123.547 132.972 123.727 132.888 123.883 132.78C124.039 132.66 124.165 132.516 124.261 132.348C124.357 132.18 124.405 131.982 124.405 131.754V125.616H127.069V135.066H124.405V133.482ZM133.802 121.746H136.466V127.218H136.574C136.742 126.726 137.036 126.3 137.456 125.94C137.876 125.58 138.458 125.4 139.202 125.4C140.174 125.4 140.906 125.724 141.398 126.372C141.902 127.02 142.154 127.944 142.154 129.144V135.066H139.49V129.36C139.49 128.748 139.394 128.298 139.202 128.01C139.01 127.71 138.668 127.56 138.176 127.56C137.96 127.56 137.75 127.59 137.546 127.65C137.342 127.698 137.156 127.782 136.988 127.902C136.832 128.022 136.706 128.172 136.61 128.352C136.514 128.52 136.466 128.718 136.466 128.946V135.066H133.802V121.746ZM151.508 135.066C151.028 135.066 150.626 134.916 150.302 134.616C149.99 134.316 149.792 133.914 149.708 133.41H149.6C149.456 134.022 149.138 134.49 148.646 134.814C148.154 135.126 147.548 135.282 146.828 135.282C145.88 135.282 145.154 135.03 144.65 134.526C144.146 134.022 143.894 133.356 143.894 132.528C143.894 131.532 144.254 130.794 144.974 130.314C145.706 129.822 146.696 129.576 147.944 129.576H149.438V128.982C149.438 128.526 149.318 128.166 149.078 127.902C148.838 127.626 148.436 127.488 147.872 127.488C147.344 127.488 146.924 127.602 146.612 127.83C146.3 128.058 146.042 128.316 145.838 128.604L144.254 127.2C144.638 126.636 145.118 126.198 145.694 125.886C146.282 125.562 147.074 125.4 148.07 125.4C149.414 125.4 150.422 125.694 151.094 126.282C151.766 126.87 152.102 127.728 152.102 128.856V132.996H152.984V135.066H151.508ZM147.818 133.428C148.262 133.428 148.64 133.332 148.952 133.14C149.276 132.948 149.438 132.636 149.438 132.204V131.088H148.142C147.098 131.088 146.576 131.442 146.576 132.15V132.42C146.576 132.768 146.684 133.026 146.9 133.194C147.116 133.35 147.422 133.428 147.818 133.428ZM156.613 135.066L153.517 125.616H156.145L157.315 129.432L158.197 132.852H158.341L159.223 129.432L160.357 125.616H162.877L159.781 135.066H156.613ZM168.084 135.282C167.364 135.282 166.722 135.168 166.158 134.94C165.594 134.7 165.114 134.37 164.718 133.95C164.334 133.518 164.04 132.996 163.836 132.384C163.644 131.772 163.548 131.088 163.548 130.332C163.548 129.588 163.644 128.916 163.836 128.316C164.028 127.704 164.31 127.182 164.682 126.75C165.066 126.318 165.534 125.988 166.086 125.76C166.638 125.52 167.268 125.4 167.976 125.4C168.756 125.4 169.422 125.532 169.974 125.796C170.538 126.06 170.994 126.414 171.342 126.858C171.702 127.302 171.96 127.818 172.116 128.406C172.284 128.982 172.368 129.588 172.368 130.224V131.016H166.302V131.16C166.302 131.784 166.47 132.282 166.806 132.654C167.142 133.014 167.67 133.194 168.39 133.194C168.942 133.194 169.392 133.086 169.74 132.87C170.088 132.642 170.412 132.372 170.712 132.06L172.044 133.716C171.624 134.208 171.072 134.592 170.388 134.868C169.716 135.144 168.948 135.282 168.084 135.282ZM168.03 127.362C167.49 127.362 167.064 127.542 166.752 127.902C166.452 128.25 166.302 128.718 166.302 129.306V129.45H169.614V129.288C169.614 128.712 169.482 128.25 169.218 127.902C168.966 127.542 168.57 127.362 168.03 127.362ZM178.503 135.066V125.616H181.167V127.218H181.275C181.443 126.726 181.737 126.3 182.157 125.94C182.577 125.58 183.159 125.4 183.903 125.4C184.875 125.4 185.607 125.724 186.099 126.372C186.603 127.02 186.855 127.944 186.855 129.144V135.066H184.191V129.36C184.191 128.748 184.095 128.298 183.903 128.01C183.711 127.71 183.369 127.56 182.877 127.56C182.661 127.56 182.451 127.59 182.247 127.65C182.043 127.698 181.857 127.782 181.689 127.902C181.533 128.022 181.407 128.172 181.311 128.352C181.215 128.52 181.167 128.718 181.167 128.946V135.066H178.503ZM193.06 135.282C192.364 135.282 191.74 135.168 191.188 134.94C190.648 134.712 190.186 134.382 189.802 133.95C189.43 133.518 189.142 132.996 188.938 132.384C188.734 131.772 188.632 131.088 188.632 130.332C188.632 129.576 188.734 128.892 188.938 128.28C189.142 127.668 189.43 127.152 189.802 126.732C190.186 126.3 190.648 125.97 191.188 125.742C191.74 125.514 192.364 125.4 193.06 125.4C193.756 125.4 194.374 125.514 194.914 125.742C195.466 125.97 195.928 126.3 196.3 126.732C196.684 127.152 196.978 127.668 197.182 128.28C197.386 128.892 197.488 129.576 197.488 130.332C197.488 131.088 197.386 131.772 197.182 132.384C196.978 132.996 196.684 133.518 196.3 133.95C195.928 134.382 195.466 134.712 194.914 134.94C194.374 135.168 193.756 135.282 193.06 135.282ZM193.06 133.176C193.588 133.176 193.996 133.014 194.284 132.69C194.572 132.366 194.716 131.904 194.716 131.304V129.378C194.716 128.778 194.572 128.316 194.284 127.992C193.996 127.668 193.588 127.506 193.06 127.506C192.532 127.506 192.124 127.668 191.836 127.992C191.548 128.316 191.404 128.778 191.404 129.378V131.304C191.404 131.904 191.548 132.366 191.836 132.69C192.124 133.014 192.532 133.176 193.06 133.176ZM207.456 135.282C206.748 135.282 206.118 135.168 205.566 134.94C205.014 134.7 204.552 134.37 204.18 133.95C203.808 133.518 203.526 132.996 203.334 132.384C203.142 131.772 203.046 131.088 203.046 130.332C203.046 129.576 203.142 128.898 203.334 128.298C203.526 127.686 203.808 127.164 204.18 126.732C204.552 126.3 205.014 125.97 205.566 125.742C206.118 125.514 206.748 125.4 207.456 125.4C208.416 125.4 209.214 125.616 209.85 126.048C210.498 126.48 210.96 127.086 211.236 127.866L209.076 128.802C208.992 128.442 208.818 128.136 208.554 127.884C208.29 127.632 207.924 127.506 207.456 127.506C206.916 127.506 206.508 127.686 206.232 128.046C205.956 128.394 205.818 128.868 205.818 129.468V131.232C205.818 131.832 205.956 132.306 206.232 132.654C206.508 133.002 206.916 133.176 207.456 133.176C207.936 133.176 208.314 133.05 208.59 132.798C208.878 132.534 209.088 132.192 209.22 131.772L211.29 132.672C210.978 133.572 210.492 134.232 209.832 134.652C209.184 135.072 208.392 135.282 207.456 135.282ZM212.938 121.746H215.602V127.218H215.71C215.878 126.726 216.172 126.3 216.592 125.94C217.012 125.58 217.594 125.4 218.338 125.4C219.31 125.4 220.042 125.724 220.534 126.372C221.038 127.02 221.29 127.944 221.29 129.144V135.066H218.626V129.36C218.626 128.748 218.53 128.298 218.338 128.01C218.146 127.71 217.804 127.56 217.312 127.56C217.096 127.56 216.886 127.59 216.682 127.65C216.478 127.698 216.292 127.782 216.124 127.902C215.968 128.022 215.842 128.172 215.746 128.352C215.65 128.52 215.602 128.718 215.602 128.946V135.066H212.938V121.746ZM230.645 135.066C230.165 135.066 229.763 134.916 229.439 134.616C229.127 134.316 228.929 133.914 228.845 133.41H228.737C228.593 134.022 228.275 134.49 227.783 134.814C227.291 135.126 226.685 135.282 225.965 135.282C225.017 135.282 224.291 135.03 223.787 134.526C223.283 134.022 223.031 133.356 223.031 132.528C223.031 131.532 223.391 130.794 224.111 130.314C224.843 129.822 225.833 129.576 227.081 129.576H228.575V128.982C228.575 128.526 228.455 128.166 228.215 127.902C227.975 127.626 227.573 127.488 227.009 127.488C226.481 127.488 226.061 127.602 225.749 127.83C225.437 128.058 225.179 128.316 224.975 128.604L223.391 127.2C223.775 126.636 224.255 126.198 224.831 125.886C225.419 125.562 226.211 125.4 227.207 125.4C228.551 125.4 229.559 125.694 230.231 126.282C230.903 126.87 231.239 127.728 231.239 128.856V132.996H232.121V135.066H230.645ZM226.955 133.428C227.399 133.428 227.777 133.332 228.089 133.14C228.413 132.948 228.575 132.636 228.575 132.204V131.088H227.279C226.235 131.088 225.713 131.442 225.713 132.15V132.42C225.713 132.768 225.821 133.026 226.037 133.194C226.253 133.35 226.559 133.428 226.955 133.428ZM237.116 135.066C236.192 135.066 235.49 134.832 235.01 134.364C234.542 133.896 234.308 133.212 234.308 132.312V127.686H232.976V125.616H233.642C234.002 125.616 234.248 125.532 234.38 125.364C234.512 125.184 234.578 124.932 234.578 124.608V123.06H236.972V125.616H238.844V127.686H236.972V132.996H238.7V135.066H237.116ZM243.898 135.282C242.986 135.282 242.218 135.138 241.594 134.85C240.97 134.55 240.412 134.13 239.92 133.59L241.486 132.006C241.822 132.378 242.194 132.672 242.602 132.888C243.01 133.104 243.472 133.212 243.988 133.212C244.516 133.212 244.882 133.134 245.086 132.978C245.29 132.81 245.392 132.588 245.392 132.312C245.392 131.868 245.074 131.604 244.438 131.52L243.412 131.394C241.288 131.13 240.226 130.158 240.226 128.478C240.226 128.022 240.31 127.608 240.478 127.236C240.658 126.852 240.904 126.528 241.216 126.264C241.54 125.988 241.924 125.778 242.368 125.634C242.824 125.478 243.334 125.4 243.898 125.4C244.39 125.4 244.822 125.436 245.194 125.508C245.578 125.568 245.914 125.664 246.202 125.796C246.502 125.916 246.772 126.072 247.012 126.264C247.264 126.444 247.51 126.648 247.75 126.876L246.22 128.442C245.92 128.142 245.578 127.908 245.194 127.74C244.822 127.56 244.438 127.47 244.042 127.47C243.586 127.47 243.262 127.542 243.07 127.686C242.878 127.83 242.782 128.022 242.782 128.262C242.782 128.514 242.848 128.712 242.98 128.856C243.124 128.988 243.388 129.084 243.772 129.144L244.834 129.288C246.91 129.564 247.948 130.512 247.948 132.132C247.948 132.588 247.852 133.008 247.66 133.392C247.468 133.776 247.192 134.112 246.832 134.4C246.484 134.676 246.058 134.892 245.554 135.048C245.062 135.204 244.51 135.282 243.898 135.282ZM251.172 135.264C250.632 135.264 250.23 135.132 249.966 134.868C249.714 134.592 249.588 134.244 249.588 133.824V133.464C249.588 133.044 249.714 132.702 249.966 132.438C250.23 132.162 250.632 132.024 251.172 132.024C251.712 132.024 252.108 132.162 252.36 132.438C252.624 132.702 252.756 133.044 252.756 133.464V133.824C252.756 134.244 252.624 134.592 252.36 134.868C252.108 135.132 251.712 135.264 251.172 135.264ZM78.0829 149.822H78.0289L77.1109 151.658L74.6629 156.104L72.2689 151.676L71.3149 149.696H71.2609V158.066H68.6869V145.502H71.5849L74.6629 151.388H74.6989L77.7409 145.502H80.6569V158.066H78.0829V149.822ZM90.2749 158.066C89.7949 158.066 89.3929 157.916 89.0689 157.616C88.7569 157.316 88.5589 156.914 88.4749 156.41H88.3669C88.2229 157.022 87.9049 157.49 87.4129 157.814C86.9209 158.126 86.3149 158.282 85.5949 158.282C84.6469 158.282 83.9209 158.03 83.4169 157.526C82.9129 157.022 82.6609 156.356 82.6609 155.528C82.6609 154.532 83.0209 153.794 83.7409 153.314C84.4729 152.822 85.4629 152.576 86.7109 152.576H88.2049V151.982C88.2049 151.526 88.0849 151.166 87.8449 150.902C87.6049 150.626 87.2029 150.488 86.6389 150.488C86.1109 150.488 85.6909 150.602 85.3789 150.83C85.0669 151.058 84.8089 151.316 84.6049 151.604L83.0209 150.2C83.4049 149.636 83.8849 149.198 84.4609 148.886C85.0489 148.562 85.8409 148.4 86.8369 148.4C88.1809 148.4 89.1889 148.694 89.8609 149.282C90.5329 149.87 90.8689 150.728 90.8689 151.856V155.996H91.7509V158.066H90.2749ZM86.5849 156.428C87.0289 156.428 87.4069 156.332 87.7189 156.14C88.0429 155.948 88.2049 155.636 88.2049 155.204V154.088H86.9089C85.8649 154.088 85.3429 154.442 85.3429 155.15V155.42C85.3429 155.768 85.4509 156.026 85.6669 156.194C85.8829 156.35 86.1889 156.428 86.5849 156.428ZM96.7455 158.066C95.8215 158.066 95.1195 157.832 94.6395 157.364C94.1715 156.896 93.9375 156.212 93.9375 155.312V150.686H92.6055V148.616H93.2715C93.6315 148.616 93.8775 148.532 94.0095 148.364C94.1415 148.184 94.2075 147.932 94.2075 147.608V146.06H96.6015V148.616H98.4735V150.686H96.6015V155.996H98.3295V158.066H96.7455ZM104.07 158.282C103.362 158.282 102.732 158.168 102.18 157.94C101.628 157.7 101.166 157.37 100.794 156.95C100.422 156.518 100.14 155.996 99.9478 155.384C99.7558 154.772 99.6598 154.088 99.6598 153.332C99.6598 152.576 99.7558 151.898 99.9478 151.298C100.14 150.686 100.422 150.164 100.794 149.732C101.166 149.3 101.628 148.97 102.18 148.742C102.732 148.514 103.362 148.4 104.07 148.4C105.03 148.4 105.828 148.616 106.464 149.048C107.112 149.48 107.574 150.086 107.85 150.866L105.69 151.802C105.606 151.442 105.432 151.136 105.168 150.884C104.904 150.632 104.538 150.506 104.07 150.506C103.53 150.506 103.122 150.686 102.846 151.046C102.57 151.394 102.432 151.868 102.432 152.468V154.232C102.432 154.832 102.57 155.306 102.846 155.654C103.122 156.002 103.53 156.176 104.07 156.176C104.55 156.176 104.928 156.05 105.204 155.798C105.492 155.534 105.702 155.192 105.834 154.772L107.904 155.672C107.592 156.572 107.106 157.232 106.446 157.652C105.798 158.072 105.006 158.282 104.07 158.282ZM109.553 144.746H112.217V150.218H112.325C112.493 149.726 112.787 149.3 113.207 148.94C113.627 148.58 114.209 148.4 114.953 148.4C115.925 148.4 116.657 148.724 117.149 149.372C117.653 150.02 117.905 150.944 117.905 152.144V158.066H115.241V152.36C115.241 151.748 115.145 151.298 114.953 151.01C114.761 150.71 114.419 150.56 113.927 150.56C113.711 150.56 113.501 150.59 113.297 150.65C113.093 150.698 112.907 150.782 112.739 150.902C112.583 151.022 112.457 151.172 112.361 151.352C112.265 151.52 112.217 151.718 112.217 151.946V158.066H109.553V144.746ZM123.629 148.616H126.203L127.121 152.432L127.769 155.312H127.841L128.597 152.432L129.677 148.616H132.107L133.205 152.432L133.979 155.312H134.051L134.699 152.432L135.617 148.616H138.083L135.473 158.066H132.683L131.531 154.07L130.865 151.622H130.811L130.163 154.07L129.011 158.066H126.275L123.629 148.616ZM140.996 147.608C140.456 147.608 140.06 147.488 139.808 147.248C139.568 146.996 139.448 146.678 139.448 146.294V145.898C139.448 145.514 139.568 145.202 139.808 144.962C140.06 144.71 140.456 144.584 140.996 144.584C141.536 144.584 141.926 144.71 142.166 144.962C142.418 145.202 142.544 145.514 142.544 145.898V146.294C142.544 146.678 142.418 146.996 142.166 147.248C141.926 147.488 141.536 147.608 140.996 147.608ZM139.664 148.616H142.328V158.066H139.664V148.616ZM148.126 158.066C147.202 158.066 146.5 157.832 146.02 157.364C145.552 156.896 145.318 156.212 145.318 155.312V150.686H143.986V148.616H144.652C145.012 148.616 145.258 148.532 145.39 148.364C145.522 148.184 145.588 147.932 145.588 147.608V146.06H147.982V148.616H149.854V150.686H147.982V155.996H149.71V158.066H148.126ZM151.705 144.746H154.369V150.218H154.477C154.645 149.726 154.939 149.3 155.359 148.94C155.779 148.58 156.361 148.4 157.105 148.4C158.077 148.4 158.809 148.724 159.301 149.372C159.805 150.02 160.057 150.944 160.057 152.144V158.066H157.393V152.36C157.393 151.748 157.297 151.298 157.105 151.01C156.913 150.71 156.571 150.56 156.079 150.56C155.863 150.56 155.653 150.59 155.449 150.65C155.245 150.698 155.059 150.782 154.891 150.902C154.735 151.022 154.609 151.172 154.513 151.352C154.417 151.52 154.369 151.718 154.369 151.946V158.066H151.705V144.746ZM169.886 158.282C168.974 158.282 168.206 158.138 167.582 157.85C166.958 157.55 166.4 157.13 165.908 156.59L167.474 155.006C167.81 155.378 168.182 155.672 168.59 155.888C168.998 156.104 169.46 156.212 169.976 156.212C170.504 156.212 170.87 156.134 171.074 155.978C171.278 155.81 171.38 155.588 171.38 155.312C171.38 154.868 171.062 154.604 170.426 154.52L169.4 154.394C167.276 154.13 166.214 153.158 166.214 151.478C166.214 151.022 166.298 150.608 166.466 150.236C166.646 149.852 166.892 149.528 167.204 149.264C167.528 148.988 167.912 148.778 168.356 148.634C168.812 148.478 169.322 148.4 169.886 148.4C170.378 148.4 170.81 148.436 171.182 148.508C171.566 148.568 171.902 148.664 172.19 148.796C172.49 148.916 172.76 149.072 173 149.264C173.252 149.444 173.498 149.648 173.738 149.876L172.208 151.442C171.908 151.142 171.566 150.908 171.182 150.74C170.81 150.56 170.426 150.47 170.03 150.47C169.574 150.47 169.25 150.542 169.058 150.686C168.866 150.83 168.77 151.022 168.77 151.262C168.77 151.514 168.836 151.712 168.968 151.856C169.112 151.988 169.376 152.084 169.76 152.144L170.822 152.288C172.898 152.564 173.936 153.512 173.936 155.132C173.936 155.588 173.84 156.008 173.648 156.392C173.456 156.776 173.18 157.112 172.82 157.4C172.472 157.676 172.046 157.892 171.542 158.048C171.05 158.204 170.498 158.282 169.886 158.282ZM179.586 158.282C178.89 158.282 178.266 158.168 177.714 157.94C177.174 157.712 176.712 157.382 176.328 156.95C175.956 156.518 175.668 155.996 175.464 155.384C175.26 154.772 175.158 154.088 175.158 153.332C175.158 152.576 175.26 151.892 175.464 151.28C175.668 150.668 175.956 150.152 176.328 149.732C176.712 149.3 177.174 148.97 177.714 148.742C178.266 148.514 178.89 148.4 179.586 148.4C180.282 148.4 180.9 148.514 181.44 148.742C181.992 148.97 182.454 149.3 182.826 149.732C183.21 150.152 183.504 150.668 183.708 151.28C183.912 151.892 184.014 152.576 184.014 153.332C184.014 154.088 183.912 154.772 183.708 155.384C183.504 155.996 183.21 156.518 182.826 156.95C182.454 157.382 181.992 157.712 181.44 157.94C180.9 158.168 180.282 158.282 179.586 158.282ZM179.586 156.176C180.114 156.176 180.522 156.014 180.81 155.69C181.098 155.366 181.242 154.904 181.242 154.304V152.378C181.242 151.778 181.098 151.316 180.81 150.992C180.522 150.668 180.114 150.506 179.586 150.506C179.058 150.506 178.65 150.668 178.362 150.992C178.074 151.316 177.93 151.778 177.93 152.378V154.304C177.93 154.904 178.074 155.366 178.362 155.69C178.65 156.014 179.058 156.176 179.586 156.176ZM185.912 158.066V148.616H188.576V150.218H188.684C188.852 149.714 189.14 149.288 189.548 148.94C189.956 148.58 190.514 148.4 191.222 148.4C191.87 148.4 192.422 148.562 192.878 148.886C193.334 149.21 193.664 149.684 193.868 150.308H193.922C194.006 150.044 194.132 149.798 194.3 149.57C194.48 149.33 194.696 149.126 194.948 148.958C195.2 148.79 195.482 148.658 195.794 148.562C196.106 148.454 196.442 148.4 196.802 148.4C197.714 148.4 198.41 148.724 198.89 149.372C199.382 150.02 199.628 150.944 199.628 152.144V158.066H196.964V152.36C196.964 151.16 196.532 150.56 195.668 150.56C195.272 150.56 194.912 150.674 194.588 150.902C194.264 151.13 194.102 151.478 194.102 151.946V158.066H191.438V152.36C191.438 151.16 191.006 150.56 190.142 150.56C189.95 150.56 189.758 150.59 189.566 150.65C189.386 150.698 189.218 150.782 189.062 150.902C188.918 151.022 188.798 151.172 188.702 151.352C188.618 151.52 188.576 151.718 188.576 151.946V158.066H185.912ZM205.938 158.282C205.218 158.282 204.576 158.168 204.012 157.94C203.448 157.7 202.968 157.37 202.572 156.95C202.188 156.518 201.894 155.996 201.69 155.384C201.498 154.772 201.402 154.088 201.402 153.332C201.402 152.588 201.498 151.916 201.69 151.316C201.882 150.704 202.164 150.182 202.536 149.75C202.92 149.318 203.388 148.988 203.94 148.76C204.492 148.52 205.122 148.4 205.83 148.4C206.61 148.4 207.276 148.532 207.828 148.796C208.392 149.06 208.848 149.414 209.196 149.858C209.556 150.302 209.814 150.818 209.97 151.406C210.138 151.982 210.222 152.588 210.222 153.224V154.016H204.156V154.16C204.156 154.784 204.324 155.282 204.66 155.654C204.996 156.014 205.524 156.194 206.244 156.194C206.796 156.194 207.246 156.086 207.594 155.87C207.942 155.642 208.266 155.372 208.566 155.06L209.898 156.716C209.478 157.208 208.926 157.592 208.242 157.868C207.57 158.144 206.802 158.282 205.938 158.282ZM205.884 150.362C205.344 150.362 204.918 150.542 204.606 150.902C204.306 151.25 204.156 151.718 204.156 152.306V152.45H207.468V152.288C207.468 151.712 207.336 151.25 207.072 150.902C206.82 150.542 206.424 150.362 205.884 150.362ZM215.937 158.282C215.241 158.282 214.617 158.168 214.065 157.94C213.525 157.712 213.063 157.382 212.679 156.95C212.307 156.518 212.019 155.996 211.815 155.384C211.611 154.772 211.509 154.088 211.509 153.332C211.509 152.576 211.611 151.892 211.815 151.28C212.019 150.668 212.307 150.152 212.679 149.732C213.063 149.3 213.525 148.97 214.065 148.742C214.617 148.514 215.241 148.4 215.937 148.4C216.633 148.4 217.251 148.514 217.791 148.742C218.343 148.97 218.805 149.3 219.177 149.732C219.561 150.152 219.855 150.668 220.059 151.28C220.263 151.892 220.365 152.576 220.365 153.332C220.365 154.088 220.263 154.772 220.059 155.384C219.855 155.996 219.561 156.518 219.177 156.95C218.805 157.382 218.343 157.712 217.791 157.94C217.251 158.168 216.633 158.282 215.937 158.282ZM215.937 156.176C216.465 156.176 216.873 156.014 217.161 155.69C217.449 155.366 217.593 154.904 217.593 154.304V152.378C217.593 151.778 217.449 151.316 217.161 150.992C216.873 150.668 216.465 150.506 215.937 150.506C215.409 150.506 215.001 150.668 214.713 150.992C214.425 151.316 214.281 151.778 214.281 152.378V154.304C214.281 154.904 214.425 155.366 214.713 155.69C215.001 156.014 215.409 156.176 215.937 156.176ZM222.264 158.066V148.616H224.928V150.218H225.036C225.204 149.726 225.498 149.3 225.918 148.94C226.338 148.58 226.92 148.4 227.664 148.4C228.636 148.4 229.368 148.724 229.86 149.372C230.364 150.02 230.616 150.944 230.616 152.144V158.066H227.952V152.36C227.952 151.748 227.856 151.298 227.664 151.01C227.472 150.71 227.13 150.56 226.638 150.56C226.422 150.56 226.212 150.59 226.008 150.65C225.804 150.698 225.618 150.782 225.45 150.902C225.294 151.022 225.168 151.172 225.072 151.352C224.976 151.52 224.928 151.718 224.928 151.946V158.066H222.264ZM236.928 158.282C236.208 158.282 235.566 158.168 235.002 157.94C234.438 157.7 233.958 157.37 233.562 156.95C233.178 156.518 232.884 155.996 232.68 155.384C232.488 154.772 232.392 154.088 232.392 153.332C232.392 152.588 232.488 151.916 232.68 151.316C232.872 150.704 233.154 150.182 233.526 149.75C233.91 149.318 234.378 148.988 234.93 148.76C235.482 148.52 236.112 148.4 236.82 148.4C237.6 148.4 238.266 148.532 238.818 148.796C239.382 149.06 239.838 149.414 240.186 149.858C240.546 150.302 240.804 150.818 240.96 151.406C241.128 151.982 241.212 152.588 241.212 153.224V154.016H235.146V154.16C235.146 154.784 235.314 155.282 235.65 155.654C235.986 156.014 236.514 156.194 237.234 156.194C237.786 156.194 238.236 156.086 238.584 155.87C238.932 155.642 239.256 155.372 239.556 155.06L240.888 156.716C240.468 157.208 239.916 157.592 239.232 157.868C238.56 158.144 237.792 158.282 236.928 158.282ZM236.874 150.362C236.334 150.362 235.908 150.542 235.596 150.902C235.296 151.25 235.146 151.718 235.146 152.306V152.45H238.458V152.288C238.458 151.712 238.326 151.25 238.062 150.902C237.81 150.542 237.414 150.362 236.874 150.362ZM247.348 158.066V148.616H250.012V150.218H250.12C250.288 149.726 250.582 149.3 251.002 148.94C251.422 148.58 252.004 148.4 252.748 148.4C253.72 148.4 254.452 148.724 254.944 149.372C255.448 150.02 255.7 150.944 255.7 152.144V158.066H253.036V152.36C253.036 151.748 252.94 151.298 252.748 151.01C252.556 150.71 252.214 150.56 251.722 150.56C251.506 150.56 251.296 150.59 251.092 150.65C250.888 150.698 250.702 150.782 250.534 150.902C250.378 151.022 250.252 151.172 250.156 151.352C250.06 151.52 250.012 151.718 250.012 151.946V158.066H247.348ZM261.904 158.282C261.208 158.282 260.584 158.168 260.032 157.94C259.492 157.712 259.03 157.382 258.646 156.95C258.274 156.518 257.986 155.996 257.782 155.384C257.578 154.772 257.476 154.088 257.476 153.332C257.476 152.576 257.578 151.892 257.782 151.28C257.986 150.668 258.274 150.152 258.646 149.732C259.03 149.3 259.492 148.97 260.032 148.742C260.584 148.514 261.208 148.4 261.904 148.4C262.6 148.4 263.218 148.514 263.758 148.742C264.31 148.97 264.772 149.3 265.144 149.732C265.528 150.152 265.822 150.668 266.026 151.28C266.23 151.892 266.332 152.576 266.332 153.332C266.332 154.088 266.23 154.772 266.026 155.384C265.822 155.996 265.528 156.518 265.144 156.95C264.772 157.382 264.31 157.712 263.758 157.94C263.218 158.168 262.6 158.282 261.904 158.282ZM261.904 156.176C262.432 156.176 262.84 156.014 263.128 155.69C263.416 155.366 263.56 154.904 263.56 154.304V152.378C263.56 151.778 263.416 151.316 263.128 150.992C262.84 150.668 262.432 150.506 261.904 150.506C261.376 150.506 260.968 150.668 260.68 150.992C260.392 151.316 260.248 151.778 260.248 152.378V154.304C260.248 154.904 260.392 155.366 260.68 155.69C260.968 156.014 261.376 156.176 261.904 156.176ZM267.155 148.616H269.729L270.647 152.432L271.295 155.312H271.367L272.123 152.432L273.203 148.616H275.633L276.731 152.432L277.505 155.312H277.577L278.225 152.432L279.143 148.616H281.609L278.999 158.066H276.209L275.057 154.07L274.391 151.622H274.337L273.689 154.07L272.537 158.066H269.801L267.155 148.616ZM284.287 154.106L283.441 148.994V145.502H286.249V148.994L285.421 154.106H284.287ZM284.827 158.282C284.251 158.282 283.837 158.15 283.585 157.886C283.345 157.622 283.225 157.298 283.225 156.914V156.482C283.225 156.098 283.345 155.774 283.585 155.51C283.837 155.246 284.251 155.114 284.827 155.114C285.403 155.114 285.811 155.246 286.051 155.51C286.303 155.774 286.429 156.098 286.429 156.482V156.914C286.429 157.298 286.303 157.622 286.051 157.886C285.811 158.15 285.403 158.282 284.827 158.282Z" fill="#CCCCCC"/>
<defs>
<clipPath id="clip0">
<rect x="123.507" y="0.78186" width="108" height="108" fill="white"/>
</clipPath>
</defs>
</svg>
