<svg width="326" height="407" viewBox="0 0 326 407" fill="none" xmlns="http://www.w3.org/2000/svg">
<rect x="4" y="4" width="318" height="399" rx="8" fill="white" stroke="#CCCCCC" stroke-width="8"/>
<path d="M44.8987 281V268.436H50.8387C51.4267 268.436 51.9547 268.538 52.4227 268.742C52.8907 268.934 53.2867 269.204 53.6107 269.552C53.9467 269.9 54.2047 270.326 54.3847 270.83C54.5647 271.322 54.6547 271.862 54.6547 272.45C54.6547 273.05 54.5647 273.596 54.3847 274.088C54.2047 274.58 53.9467 275 53.6107 275.348C53.2867 275.696 52.8907 275.972 52.4227 276.176C51.9547 276.368 51.4267 276.464 50.8387 276.464H47.6347V281H44.8987ZM47.6347 274.088H50.5147C50.9227 274.088 51.2407 273.986 51.4687 273.782C51.7087 273.566 51.8287 273.254 51.8287 272.846V272.054C51.8287 271.646 51.7087 271.34 51.4687 271.136C51.2407 270.92 50.9227 270.812 50.5147 270.812H47.6347V274.088ZM59.2132 281C58.3012 281 57.6292 280.778 57.1972 280.334C56.7772 279.89 56.5672 279.248 56.5672 278.408V267.68H59.2312V278.93H60.4192V281H59.2132ZM65.9584 281.216C65.2384 281.216 64.5964 281.102 64.0324 280.874C63.4684 280.634 62.9884 280.304 62.5924 279.884C62.2084 279.452 61.9144 278.93 61.7104 278.318C61.5184 277.706 61.4224 277.022 61.4224 276.266C61.4224 275.522 61.5184 274.85 61.7104 274.25C61.9024 273.638 62.1844 273.116 62.5564 272.684C62.9404 272.252 63.4084 271.922 63.9604 271.694C64.5124 271.454 65.1424 271.334 65.8504 271.334C66.6304 271.334 67.2964 271.466 67.8484 271.73C68.4124 271.994 68.8684 272.348 69.2164 272.792C69.5764 273.236 69.8344 273.752 69.9904 274.34C70.1584 274.916 70.2424 275.522 70.2424 276.158V276.95H64.1764V277.094C64.1764 277.718 64.3444 278.216 64.6804 278.588C65.0164 278.948 65.5444 279.128 66.2644 279.128C66.8164 279.128 67.2664 279.02 67.6144 278.804C67.9624 278.576 68.2864 278.306 68.5864 277.994L69.9184 279.65C69.4984 280.142 68.9464 280.526 68.2624 280.802C67.5904 281.078 66.8224 281.216 65.9584 281.216ZM65.9044 273.296C65.3644 273.296 64.9384 273.476 64.6264 273.836C64.3264 274.184 64.1764 274.652 64.1764 275.24V275.384H67.4884V275.222C67.4884 274.646 67.3564 274.184 67.0924 273.836C66.8404 273.476 66.4444 273.296 65.9044 273.296ZM79.1078 281C78.6278 281 78.2258 280.85 77.9018 280.55C77.5898 280.25 77.3918 279.848 77.3078 279.344H77.1998C77.0558 279.956 76.7378 280.424 76.2458 280.748C75.7538 281.06 75.1478 281.216 74.4278 281.216C73.4798 281.216 72.7538 280.964 72.2498 280.46C71.7458 279.956 71.4938 279.29 71.4938 278.462C71.4938 277.466 71.8538 276.728 72.5738 276.248C73.3058 275.756 74.2958 275.51 75.5438 275.51H77.0378V274.916C77.0378 274.46 76.9178 274.1 76.6778 273.836C76.4378 273.56 76.0358 273.422 75.4718 273.422C74.9438 273.422 74.5238 273.536 74.2118 273.764C73.8998 273.992 73.6418 274.25 73.4378 274.538L71.8538 273.134C72.2378 272.57 72.7178 272.132 73.2938 271.82C73.8818 271.496 74.6738 271.334 75.6698 271.334C77.0138 271.334 78.0218 271.628 78.6938 272.216C79.3658 272.804 79.7018 273.662 79.7018 274.79V278.93H80.5838V281H79.1078ZM75.4178 279.362C75.8618 279.362 76.2398 279.266 76.5518 279.074C76.8758 278.882 77.0378 278.57 77.0378 278.138V277.022H75.7418C74.6978 277.022 74.1758 277.376 74.1758 278.084V278.354C74.1758 278.702 74.2838 278.96 74.4998 279.128C74.7158 279.284 75.0218 279.362 75.4178 279.362ZM85.5759 281.216C84.6639 281.216 83.8959 281.072 83.2719 280.784C82.6479 280.484 82.0899 280.064 81.5979 279.524L83.1639 277.94C83.4999 278.312 83.8719 278.606 84.2799 278.822C84.6879 279.038 85.1499 279.146 85.6659 279.146C86.1939 279.146 86.5599 279.068 86.7639 278.912C86.9679 278.744 87.0699 278.522 87.0699 278.246C87.0699 277.802 86.7519 277.538 86.1159 277.454L85.0899 277.328C82.9659 277.064 81.9039 276.092 81.9039 274.412C81.9039 273.956 81.9879 273.542 82.1559 273.17C82.3359 272.786 82.5819 272.462 82.8939 272.198C83.2179 271.922 83.6019 271.712 84.0459 271.568C84.5019 271.412 85.0119 271.334 85.5759 271.334C86.0679 271.334 86.4999 271.37 86.8719 271.442C87.2559 271.502 87.5919 271.598 87.8799 271.73C88.1799 271.85 88.4499 272.006 88.6899 272.198C88.9419 272.378 89.1879 272.582 89.4279 272.81L87.8979 274.376C87.5979 274.076 87.2559 273.842 86.8719 273.674C86.4999 273.494 86.1159 273.404 85.7199 273.404C85.2639 273.404 84.9399 273.476 84.7479 273.62C84.5559 273.764 84.4599 273.956 84.4599 274.196C84.4599 274.448 84.5259 274.646 84.6579 274.79C84.8019 274.922 85.0659 275.018 85.4499 275.078L86.5119 275.222C88.5879 275.498 89.6259 276.446 89.6259 278.066C89.6259 278.522 89.5299 278.942 89.3379 279.326C89.1459 279.71 88.8699 280.046 88.5099 280.334C88.1619 280.61 87.7359 280.826 87.2319 280.982C86.7399 281.138 86.1879 281.216 85.5759 281.216ZM95.3842 281.216C94.6642 281.216 94.0222 281.102 93.4582 280.874C92.8942 280.634 92.4142 280.304 92.0182 279.884C91.6342 279.452 91.3402 278.93 91.1362 278.318C90.9442 277.706 90.8482 277.022 90.8482 276.266C90.8482 275.522 90.9442 274.85 91.1362 274.25C91.3282 273.638 91.6102 273.116 91.9822 272.684C92.3662 272.252 92.8342 271.922 93.3862 271.694C93.9382 271.454 94.5682 271.334 95.2762 271.334C96.0562 271.334 96.7222 271.466 97.2742 271.73C97.8382 271.994 98.2942 272.348 98.6422 272.792C99.0022 273.236 99.2602 273.752 99.4162 274.34C99.5842 274.916 99.6682 275.522 99.6682 276.158V276.95H93.6022V277.094C93.6022 277.718 93.7702 278.216 94.1062 278.588C94.4422 278.948 94.9702 279.128 95.6902 279.128C96.2422 279.128 96.6922 279.02 97.0402 278.804C97.3882 278.576 97.7122 278.306 98.0122 277.994L99.3442 279.65C98.9242 280.142 98.3722 280.526 97.6882 280.802C97.0162 281.078 96.2482 281.216 95.3842 281.216ZM95.3302 273.296C94.7902 273.296 94.3642 273.476 94.0522 273.836C93.7522 274.184 93.6022 274.652 93.6022 275.24V275.384H96.9142V275.222C96.9142 274.646 96.7822 274.184 96.5182 273.836C96.2662 273.476 95.8702 273.296 95.3302 273.296ZM111.384 279.416H111.294C111.21 279.656 111.096 279.884 110.952 280.1C110.82 280.316 110.646 280.508 110.43 280.676C110.214 280.844 109.956 280.976 109.656 281.072C109.368 281.168 109.032 281.216 108.648 281.216C107.676 281.216 106.938 280.898 106.434 280.262C105.942 279.614 105.696 278.69 105.696 277.49V271.55H108.36V277.256C108.36 277.832 108.462 278.276 108.666 278.588C108.87 278.9 109.218 279.056 109.71 279.056C109.914 279.056 110.118 279.026 110.322 278.966C110.526 278.906 110.706 278.822 110.862 278.714C111.018 278.594 111.144 278.45 111.24 278.282C111.336 278.114 111.384 277.916 111.384 277.688V271.55H114.048V281H111.384V279.416ZM116.526 271.55H119.19V273.134H119.28C119.412 272.606 119.712 272.174 120.18 271.838C120.66 271.502 121.206 271.334 121.818 271.334C123.018 271.334 123.924 271.754 124.536 272.594C125.148 273.434 125.454 274.658 125.454 276.266C125.454 277.874 125.148 279.104 124.536 279.956C123.924 280.796 123.018 281.216 121.818 281.216C121.506 281.216 121.212 281.168 120.936 281.072C120.66 280.988 120.408 280.868 120.18 280.712C119.964 280.544 119.778 280.352 119.622 280.136C119.466 279.908 119.352 279.668 119.28 279.416H119.19V284.6H116.526V271.55ZM120.936 279.056C121.44 279.056 121.854 278.882 122.178 278.534C122.514 278.174 122.682 277.694 122.682 277.094V275.456C122.682 274.856 122.514 274.382 122.178 274.034C121.854 273.674 121.44 273.494 120.936 273.494C120.432 273.494 120.012 273.62 119.676 273.872C119.352 274.112 119.19 274.448 119.19 274.88V277.67C119.19 278.102 119.352 278.444 119.676 278.696C120.012 278.936 120.432 279.056 120.936 279.056ZM130.123 281C129.211 281 128.539 280.778 128.107 280.334C127.687 279.89 127.477 279.248 127.477 278.408V267.68H130.141V278.93H131.329V281H130.123ZM136.761 281.216C136.065 281.216 135.441 281.102 134.889 280.874C134.349 280.646 133.887 280.316 133.503 279.884C133.131 279.452 132.843 278.93 132.639 278.318C132.435 277.706 132.333 277.022 132.333 276.266C132.333 275.51 132.435 274.826 132.639 274.214C132.843 273.602 133.131 273.086 133.503 272.666C133.887 272.234 134.349 271.904 134.889 271.676C135.441 271.448 136.065 271.334 136.761 271.334C137.457 271.334 138.075 271.448 138.615 271.676C139.167 271.904 139.629 272.234 140.001 272.666C140.385 273.086 140.679 273.602 140.883 274.214C141.087 274.826 141.189 275.51 141.189 276.266C141.189 277.022 141.087 277.706 140.883 278.318C140.679 278.93 140.385 279.452 140.001 279.884C139.629 280.316 139.167 280.646 138.615 280.874C138.075 281.102 137.457 281.216 136.761 281.216ZM136.761 279.11C137.289 279.11 137.697 278.948 137.985 278.624C138.273 278.3 138.417 277.838 138.417 277.238V275.312C138.417 274.712 138.273 274.25 137.985 273.926C137.697 273.602 137.289 273.44 136.761 273.44C136.233 273.44 135.825 273.602 135.537 273.926C135.249 274.25 135.105 274.712 135.105 275.312V277.238C135.105 277.838 135.249 278.3 135.537 278.624C135.825 278.948 136.233 279.11 136.761 279.11ZM150.071 281C149.591 281 149.189 280.85 148.865 280.55C148.553 280.25 148.355 279.848 148.271 279.344H148.163C148.019 279.956 147.701 280.424 147.209 280.748C146.717 281.06 146.111 281.216 145.391 281.216C144.443 281.216 143.717 280.964 143.213 280.46C142.709 279.956 142.457 279.29 142.457 278.462C142.457 277.466 142.817 276.728 143.537 276.248C144.269 275.756 145.259 275.51 146.507 275.51H148.001V274.916C148.001 274.46 147.881 274.1 147.641 273.836C147.401 273.56 146.999 273.422 146.435 273.422C145.907 273.422 145.487 273.536 145.175 273.764C144.863 273.992 144.605 274.25 144.401 274.538L142.817 273.134C143.201 272.57 143.681 272.132 144.257 271.82C144.845 271.496 145.637 271.334 146.633 271.334C147.977 271.334 148.985 271.628 149.657 272.216C150.329 272.804 150.665 273.662 150.665 274.79V278.93H151.547V281H150.071ZM146.381 279.362C146.825 279.362 147.203 279.266 147.515 279.074C147.839 278.882 148.001 278.57 148.001 278.138V277.022H146.705C145.661 277.022 145.139 277.376 145.139 278.084V278.354C145.139 278.702 145.247 278.96 145.463 279.128C145.679 279.284 145.985 279.362 146.381 279.362ZM159.131 279.416H159.041C158.969 279.668 158.855 279.908 158.699 280.136C158.543 280.352 158.351 280.544 158.123 280.712C157.907 280.868 157.655 280.988 157.367 281.072C157.091 281.168 156.803 281.216 156.503 281.216C155.303 281.216 154.397 280.796 153.785 279.956C153.173 279.104 152.867 277.874 152.867 276.266C152.867 274.658 153.173 273.434 153.785 272.594C154.397 271.754 155.303 271.334 156.503 271.334C157.115 271.334 157.655 271.502 158.123 271.838C158.603 272.174 158.909 272.606 159.041 273.134H159.131V267.68H161.795V281H159.131V279.416ZM157.385 279.056C157.889 279.056 158.303 278.936 158.627 278.696C158.963 278.444 159.131 278.102 159.131 277.67V274.88C159.131 274.448 158.963 274.112 158.627 273.872C158.303 273.62 157.889 273.494 157.385 273.494C156.881 273.494 156.461 273.674 156.125 274.034C155.801 274.382 155.639 274.856 155.639 275.456V277.094C155.639 277.694 155.801 278.174 156.125 278.534C156.461 278.882 156.881 279.056 157.385 279.056ZM171.852 281C170.928 281 170.226 280.766 169.746 280.298C169.278 279.83 169.044 279.146 169.044 278.246V273.62H167.712V271.55H168.378C168.738 271.55 168.984 271.466 169.116 271.298C169.248 271.118 169.314 270.866 169.314 270.542V268.994H171.708V271.55H173.58V273.62H171.708V278.93H173.436V281H171.852ZM175.43 267.68H178.094V273.152H178.202C178.37 272.66 178.664 272.234 179.084 271.874C179.504 271.514 180.086 271.334 180.83 271.334C181.802 271.334 182.534 271.658 183.026 272.306C183.53 272.954 183.782 273.878 183.782 275.078V281H181.118V275.294C181.118 274.682 181.022 274.232 180.83 273.944C180.638 273.644 180.296 273.494 179.804 273.494C179.588 273.494 179.378 273.524 179.174 273.584C178.97 273.632 178.784 273.716 178.616 273.836C178.46 273.956 178.334 274.106 178.238 274.286C178.142 274.454 178.094 274.652 178.094 274.88V281H175.43V267.68ZM186.153 281V271.55H188.817V273.602H188.907C188.955 273.338 189.039 273.086 189.159 272.846C189.279 272.594 189.435 272.372 189.627 272.18C189.831 271.988 190.071 271.838 190.347 271.73C190.623 271.61 190.947 271.55 191.319 271.55H191.787V274.034H191.121C190.341 274.034 189.759 274.136 189.375 274.34C189.003 274.544 188.817 274.922 188.817 275.474V281H186.153ZM197.285 281.216C196.565 281.216 195.923 281.102 195.359 280.874C194.795 280.634 194.315 280.304 193.919 279.884C193.535 279.452 193.241 278.93 193.037 278.318C192.845 277.706 192.749 277.022 192.749 276.266C192.749 275.522 192.845 274.85 193.037 274.25C193.229 273.638 193.511 273.116 193.883 272.684C194.267 272.252 194.735 271.922 195.287 271.694C195.839 271.454 196.469 271.334 197.177 271.334C197.957 271.334 198.623 271.466 199.175 271.73C199.739 271.994 200.195 272.348 200.543 272.792C200.903 273.236 201.161 273.752 201.317 274.34C201.485 274.916 201.569 275.522 201.569 276.158V276.95H195.503V277.094C195.503 277.718 195.671 278.216 196.007 278.588C196.343 278.948 196.871 279.128 197.591 279.128C198.143 279.128 198.593 279.02 198.941 278.804C199.289 278.576 199.613 278.306 199.913 277.994L201.245 279.65C200.825 280.142 200.273 280.526 199.589 280.802C198.917 281.078 198.149 281.216 197.285 281.216ZM197.231 273.296C196.691 273.296 196.265 273.476 195.953 273.836C195.653 274.184 195.503 274.652 195.503 275.24V275.384H198.815V275.222C198.815 274.646 198.683 274.184 198.419 273.836C198.167 273.476 197.771 273.296 197.231 273.296ZM207.392 281.216C206.672 281.216 206.03 281.102 205.466 280.874C204.902 280.634 204.422 280.304 204.026 279.884C203.642 279.452 203.348 278.93 203.144 278.318C202.952 277.706 202.856 277.022 202.856 276.266C202.856 275.522 202.952 274.85 203.144 274.25C203.336 273.638 203.618 273.116 203.99 272.684C204.374 272.252 204.842 271.922 205.394 271.694C205.946 271.454 206.576 271.334 207.284 271.334C208.064 271.334 208.73 271.466 209.282 271.73C209.846 271.994 210.302 272.348 210.65 272.792C211.01 273.236 211.268 273.752 211.424 274.34C211.592 274.916 211.676 275.522 211.676 276.158V276.95H205.61V277.094C205.61 277.718 205.778 278.216 206.114 278.588C206.45 278.948 206.978 279.128 207.698 279.128C208.25 279.128 208.7 279.02 209.048 278.804C209.396 278.576 209.72 278.306 210.02 277.994L211.352 279.65C210.932 280.142 210.38 280.526 209.696 280.802C209.024 281.078 208.256 281.216 207.392 281.216ZM207.338 273.296C206.798 273.296 206.372 273.476 206.06 273.836C205.76 274.184 205.61 274.652 205.61 275.24V275.384H208.922V275.222C208.922 274.646 208.79 274.184 208.526 273.836C208.274 273.476 207.878 273.296 207.338 273.296ZM219.143 270.542C218.603 270.542 218.207 270.422 217.955 270.182C217.715 269.93 217.595 269.612 217.595 269.228V268.832C217.595 268.448 217.715 268.136 217.955 267.896C218.207 267.644 218.603 267.518 219.143 267.518C219.683 267.518 220.073 267.644 220.313 267.896C220.565 268.136 220.691 268.448 220.691 268.832V269.228C220.691 269.612 220.565 269.93 220.313 270.182C220.073 270.422 219.683 270.542 219.143 270.542ZM217.811 271.55H220.475V281H217.811V271.55ZM222.962 281V271.55H225.626V273.152H225.734C225.902 272.648 226.19 272.222 226.598 271.874C227.006 271.514 227.564 271.334 228.272 271.334C228.92 271.334 229.472 271.496 229.928 271.82C230.384 272.144 230.714 272.618 230.918 273.242H230.972C231.056 272.978 231.182 272.732 231.35 272.504C231.53 272.264 231.746 272.06 231.998 271.892C232.25 271.724 232.532 271.592 232.844 271.496C233.156 271.388 233.492 271.334 233.852 271.334C234.764 271.334 235.46 271.658 235.94 272.306C236.432 272.954 236.678 273.878 236.678 275.078V281H234.014V275.294C234.014 274.094 233.582 273.494 232.718 273.494C232.322 273.494 231.962 273.608 231.638 273.836C231.314 274.064 231.152 274.412 231.152 274.88V281H228.488V275.294C228.488 274.094 228.056 273.494 227.192 273.494C227 273.494 226.808 273.524 226.616 273.584C226.436 273.632 226.268 273.716 226.112 273.836C225.968 273.956 225.848 274.106 225.752 274.286C225.668 274.454 225.626 274.652 225.626 274.88V281H222.962ZM246.03 281C245.55 281 245.148 280.85 244.824 280.55C244.512 280.25 244.314 279.848 244.23 279.344H244.122C243.978 279.956 243.66 280.424 243.168 280.748C242.676 281.06 242.07 281.216 241.35 281.216C240.402 281.216 239.676 280.964 239.172 280.46C238.668 279.956 238.416 279.29 238.416 278.462C238.416 277.466 238.776 276.728 239.496 276.248C240.228 275.756 241.218 275.51 242.466 275.51H243.96V274.916C243.96 274.46 243.84 274.1 243.6 273.836C243.36 273.56 242.958 273.422 242.394 273.422C241.866 273.422 241.446 273.536 241.134 273.764C240.822 273.992 240.564 274.25 240.36 274.538L238.776 273.134C239.16 272.57 239.64 272.132 240.216 271.82C240.804 271.496 241.596 271.334 242.592 271.334C243.936 271.334 244.944 271.628 245.616 272.216C246.288 272.804 246.624 273.662 246.624 274.79V278.93H247.506V281H246.03ZM242.34 279.362C242.784 279.362 243.162 279.266 243.474 279.074C243.798 278.882 243.96 278.57 243.96 278.138V277.022H242.664C241.62 277.022 241.098 277.376 241.098 278.084V278.354C241.098 278.702 241.206 278.96 241.422 279.128C241.638 279.284 241.944 279.362 242.34 279.362ZM258.042 281.684C258.042 282.188 257.952 282.632 257.772 283.016C257.604 283.4 257.322 283.724 256.926 283.988C256.53 284.264 256.002 284.468 255.342 284.6C254.694 284.744 253.89 284.816 252.93 284.816C252.114 284.816 251.418 284.762 250.842 284.654C250.278 284.558 249.816 284.414 249.456 284.222C249.108 284.042 248.85 283.814 248.682 283.538C248.526 283.274 248.448 282.968 248.448 282.62C248.448 282.092 248.604 281.678 248.916 281.378C249.228 281.078 249.66 280.892 250.212 280.82V280.622C249.756 280.538 249.414 280.346 249.186 280.046C248.958 279.734 248.844 279.374 248.844 278.966C248.844 278.714 248.892 278.498 248.988 278.318C249.096 278.126 249.228 277.964 249.384 277.832C249.552 277.688 249.744 277.574 249.96 277.49C250.176 277.406 250.392 277.34 250.608 277.292V277.22C250.032 276.956 249.606 276.596 249.33 276.14C249.054 275.672 248.916 275.132 248.916 274.52C248.916 273.56 249.246 272.792 249.906 272.216C250.578 271.628 251.598 271.334 252.966 271.334C253.59 271.334 254.124 271.394 254.568 271.514V271.154C254.568 270.65 254.688 270.29 254.928 270.074C255.18 269.846 255.534 269.732 255.99 269.732H257.484V271.712H255.396V271.82C255.948 272.084 256.356 272.45 256.62 272.918C256.884 273.374 257.016 273.908 257.016 274.52C257.016 275.468 256.68 276.23 256.008 276.806C255.348 277.37 254.334 277.652 252.966 277.652C252.354 277.652 251.796 277.586 251.292 277.454C251.016 277.634 250.878 277.886 250.878 278.21C250.878 278.438 250.962 278.618 251.13 278.75C251.31 278.87 251.604 278.93 252.012 278.93H254.748C255.9 278.93 256.734 279.17 257.25 279.65C257.778 280.13 258.042 280.808 258.042 281.684ZM255.54 282.044C255.54 281.768 255.432 281.558 255.216 281.414C255 281.27 254.622 281.198 254.082 281.198H250.842C250.722 281.318 250.632 281.45 250.572 281.594C250.524 281.75 250.5 281.9 250.5 282.044C250.5 282.392 250.65 282.644 250.95 282.8C251.25 282.968 251.76 283.052 252.48 283.052H253.56C254.28 283.052 254.79 282.968 255.09 282.8C255.39 282.644 255.54 282.392 255.54 282.044ZM252.966 275.906C253.494 275.906 253.884 275.798 254.136 275.582C254.4 275.354 254.532 275.03 254.532 274.61V274.394C254.532 273.974 254.4 273.656 254.136 273.44C253.884 273.212 253.494 273.098 252.966 273.098C252.438 273.098 252.042 273.212 251.778 273.44C251.526 273.656 251.4 273.974 251.4 274.394V274.61C251.4 275.03 251.526 275.354 251.778 275.582C252.042 275.798 252.438 275.906 252.966 275.906ZM263.062 281.216C262.342 281.216 261.7 281.102 261.136 280.874C260.572 280.634 260.092 280.304 259.696 279.884C259.312 279.452 259.018 278.93 258.814 278.318C258.622 277.706 258.526 277.022 258.526 276.266C258.526 275.522 258.622 274.85 258.814 274.25C259.006 273.638 259.288 273.116 259.66 272.684C260.044 272.252 260.512 271.922 261.064 271.694C261.616 271.454 262.246 271.334 262.954 271.334C263.734 271.334 264.4 271.466 264.952 271.73C265.516 271.994 265.972 272.348 266.32 272.792C266.68 273.236 266.938 273.752 267.094 274.34C267.262 274.916 267.346 275.522 267.346 276.158V276.95H261.28V277.094C261.28 277.718 261.448 278.216 261.784 278.588C262.12 278.948 262.648 279.128 263.368 279.128C263.92 279.128 264.37 279.02 264.718 278.804C265.066 278.576 265.39 278.306 265.69 277.994L267.022 279.65C266.602 280.142 266.05 280.526 265.366 280.802C264.694 281.078 263.926 281.216 263.062 281.216ZM263.008 273.296C262.468 273.296 262.042 273.476 261.73 273.836C261.43 274.184 261.28 274.652 261.28 275.24V275.384H264.592V275.222C264.592 274.646 264.46 274.184 264.196 273.836C263.944 273.476 263.548 273.296 263.008 273.296ZM272.431 281.216C271.519 281.216 270.751 281.072 270.127 280.784C269.503 280.484 268.945 280.064 268.453 279.524L270.019 277.94C270.355 278.312 270.727 278.606 271.135 278.822C271.543 279.038 272.005 279.146 272.521 279.146C273.049 279.146 273.415 279.068 273.619 278.912C273.823 278.744 273.925 278.522 273.925 278.246C273.925 277.802 273.607 277.538 272.971 277.454L271.945 277.328C269.821 277.064 268.759 276.092 268.759 274.412C268.759 273.956 268.843 273.542 269.011 273.17C269.191 272.786 269.437 272.462 269.749 272.198C270.073 271.922 270.457 271.712 270.901 271.568C271.357 271.412 271.867 271.334 272.431 271.334C272.923 271.334 273.355 271.37 273.727 271.442C274.111 271.502 274.447 271.598 274.735 271.73C275.035 271.85 275.305 272.006 275.545 272.198C275.797 272.378 276.043 272.582 276.283 272.81L274.753 274.376C274.453 274.076 274.111 273.842 273.727 273.674C273.355 273.494 272.971 273.404 272.575 273.404C272.119 273.404 271.795 273.476 271.603 273.62C271.411 273.764 271.315 273.956 271.315 274.196C271.315 274.448 271.381 274.646 271.513 274.79C271.657 274.922 271.921 275.018 272.305 275.078L273.367 275.222C275.443 275.498 276.481 276.446 276.481 278.066C276.481 278.522 276.385 278.942 276.193 279.326C276.001 279.71 275.725 280.046 275.365 280.334C275.017 280.61 274.591 280.826 274.087 280.982C273.595 281.138 273.043 281.216 272.431 281.216ZM279.705 281.198C279.165 281.198 278.763 281.066 278.499 280.802C278.247 280.526 278.121 280.178 278.121 279.758V279.398C278.121 278.978 278.247 278.636 278.499 278.372C278.763 278.096 279.165 277.958 279.705 277.958C280.245 277.958 280.641 278.096 280.893 278.372C281.157 278.636 281.289 278.978 281.289 279.398V279.758C281.289 280.178 281.157 280.526 280.893 280.802C280.641 281.066 280.245 281.198 279.705 281.198Z" fill="#CCCCCC"/>
<path d="M168.5 140.755V204.5C168.5 205.959 167.921 207.358 166.889 208.389C165.858 209.42 164.459 210 163 210C161.541 210 160.142 209.42 159.111 208.389C158.079 207.358 157.5 205.959 157.5 204.5V140.755L139.35 158.905C138.292 159.799 136.935 160.261 135.55 160.198C134.166 160.135 132.857 159.551 131.884 158.565C130.912 157.578 130.347 156.261 130.304 154.876C130.26 153.491 130.741 152.141 131.65 151.095L159.15 123.595C160.178 122.587 161.56 122.023 163 122.023C164.44 122.023 165.822 122.587 166.85 123.595L194.35 151.095C194.929 151.584 195.401 152.187 195.735 152.867C196.07 153.547 196.261 154.289 196.295 155.046C196.33 155.803 196.207 156.559 195.936 157.267C195.664 157.974 195.249 158.618 194.717 159.158C194.185 159.698 193.547 160.122 192.844 160.403C192.14 160.685 191.386 160.818 190.628 160.794C189.871 160.77 189.127 160.59 188.442 160.265C187.757 159.94 187.147 159.477 186.65 158.905L168.5 140.7V140.755ZM113.5 204.5C113.5 203.041 114.079 201.642 115.111 200.611C116.142 199.579 117.541 199 119 199C120.459 199 121.858 199.579 122.889 200.611C123.921 201.642 124.5 203.041 124.5 204.5V221H201.5V204.5C201.5 203.041 202.079 201.642 203.111 200.611C204.142 199.579 205.541 199 207 199C208.459 199 209.858 199.579 210.889 200.611C211.921 201.642 212.5 203.041 212.5 204.5V221C212.5 223.917 211.341 226.715 209.278 228.778C207.215 230.841 204.417 232 201.5 232H124.5C121.583 232 118.785 230.841 116.722 228.778C114.659 226.715 113.5 223.917 113.5 221V204.5Z" fill="#CCCCCC"/>
</svg>
