<svg width="326" height="407" viewBox="0 0 326 407" fill="none" xmlns="http://www.w3.org/2000/svg">
<rect x="4" y="4" width="318" height="399" rx="8" fill="white" stroke="#CCCCCC" stroke-width="8"/>
<path d="M48.5901 281V268.436H54.5301C55.1181 268.436 55.6461 268.538 56.1141 268.742C56.5821 268.934 56.9781 269.204 57.3021 269.552C57.6381 269.9 57.8961 270.326 58.0761 270.83C58.2561 271.322 58.3461 271.862 58.3461 272.45C58.3461 273.05 58.2561 273.596 58.0761 274.088C57.8961 274.58 57.6381 275 57.3021 275.348C56.9781 275.696 56.5821 275.972 56.1141 276.176C55.6461 276.368 55.1181 276.464 54.5301 276.464H51.3261V281H48.5901ZM51.3261 274.088H54.2061C54.6141 274.088 54.9321 273.986 55.1601 273.782C55.4001 273.566 55.5201 273.254 55.5201 272.846V272.054C55.5201 271.646 55.4001 271.34 55.1601 271.136C54.9321 270.92 54.6141 270.812 54.2061 270.812H51.3261V274.088ZM62.9046 281C61.9926 281 61.3206 280.778 60.8886 280.334C60.4686 279.89 60.2586 279.248 60.2586 278.408V267.68H62.9226V278.93H64.1106V281H62.9046ZM69.6498 281.216C68.9298 281.216 68.2878 281.102 67.7238 280.874C67.1598 280.634 66.6798 280.304 66.2838 279.884C65.8998 279.452 65.6058 278.93 65.4018 278.318C65.2098 277.706 65.1138 277.022 65.1138 276.266C65.1138 275.522 65.2098 274.85 65.4018 274.25C65.5938 273.638 65.8758 273.116 66.2478 272.684C66.6318 272.252 67.0998 271.922 67.6518 271.694C68.2038 271.454 68.8338 271.334 69.5418 271.334C70.3218 271.334 70.9878 271.466 71.5398 271.73C72.1038 271.994 72.5598 272.348 72.9078 272.792C73.2678 273.236 73.5258 273.752 73.6818 274.34C73.8498 274.916 73.9338 275.522 73.9338 276.158V276.95H67.8678V277.094C67.8678 277.718 68.0358 278.216 68.3718 278.588C68.7078 278.948 69.2358 279.128 69.9558 279.128C70.5078 279.128 70.9578 279.02 71.3058 278.804C71.6538 278.576 71.9778 278.306 72.2778 277.994L73.6098 279.65C73.1898 280.142 72.6378 280.526 71.9538 280.802C71.2818 281.078 70.5138 281.216 69.6498 281.216ZM69.5958 273.296C69.0558 273.296 68.6298 273.476 68.3178 273.836C68.0178 274.184 67.8678 274.652 67.8678 275.24V275.384H71.1798V275.222C71.1798 274.646 71.0478 274.184 70.7838 273.836C70.5318 273.476 70.1358 273.296 69.5958 273.296ZM82.7992 281C82.3192 281 81.9172 280.85 81.5932 280.55C81.2812 280.25 81.0832 279.848 80.9992 279.344H80.8912C80.7472 279.956 80.4292 280.424 79.9372 280.748C79.4452 281.06 78.8392 281.216 78.1192 281.216C77.1712 281.216 76.4452 280.964 75.9412 280.46C75.4372 279.956 75.1852 279.29 75.1852 278.462C75.1852 277.466 75.5452 276.728 76.2652 276.248C76.9972 275.756 77.9872 275.51 79.2352 275.51H80.7292V274.916C80.7292 274.46 80.6092 274.1 80.3692 273.836C80.1292 273.56 79.7272 273.422 79.1632 273.422C78.6352 273.422 78.2152 273.536 77.9032 273.764C77.5912 273.992 77.3332 274.25 77.1292 274.538L75.5452 273.134C75.9292 272.57 76.4092 272.132 76.9852 271.82C77.5732 271.496 78.3652 271.334 79.3612 271.334C80.7052 271.334 81.7132 271.628 82.3852 272.216C83.0572 272.804 83.3932 273.662 83.3932 274.79V278.93H84.2752V281H82.7992ZM79.1092 279.362C79.5532 279.362 79.9312 279.266 80.2432 279.074C80.5672 278.882 80.7292 278.57 80.7292 278.138V277.022H79.4332C78.3892 277.022 77.8672 277.376 77.8672 278.084V278.354C77.8672 278.702 77.9752 278.96 78.1912 279.128C78.4072 279.284 78.7132 279.362 79.1092 279.362ZM89.2673 281.216C88.3553 281.216 87.5873 281.072 86.9633 280.784C86.3393 280.484 85.7813 280.064 85.2893 279.524L86.8553 277.94C87.1913 278.312 87.5633 278.606 87.9713 278.822C88.3793 279.038 88.8413 279.146 89.3573 279.146C89.8853 279.146 90.2513 279.068 90.4553 278.912C90.6593 278.744 90.7613 278.522 90.7613 278.246C90.7613 277.802 90.4433 277.538 89.8073 277.454L88.7813 277.328C86.6573 277.064 85.5953 276.092 85.5953 274.412C85.5953 273.956 85.6793 273.542 85.8473 273.17C86.0273 272.786 86.2733 272.462 86.5853 272.198C86.9093 271.922 87.2933 271.712 87.7373 271.568C88.1933 271.412 88.7033 271.334 89.2673 271.334C89.7593 271.334 90.1913 271.37 90.5633 271.442C90.9473 271.502 91.2833 271.598 91.5713 271.73C91.8713 271.85 92.1413 272.006 92.3813 272.198C92.6333 272.378 92.8793 272.582 93.1193 272.81L91.5893 274.376C91.2893 274.076 90.9473 273.842 90.5633 273.674C90.1913 273.494 89.8073 273.404 89.4113 273.404C88.9553 273.404 88.6313 273.476 88.4393 273.62C88.2473 273.764 88.1513 273.956 88.1513 274.196C88.1513 274.448 88.2173 274.646 88.3493 274.79C88.4933 274.922 88.7573 275.018 89.1413 275.078L90.2033 275.222C92.2793 275.498 93.3173 276.446 93.3173 278.066C93.3173 278.522 93.2213 278.942 93.0293 279.326C92.8373 279.71 92.5613 280.046 92.2013 280.334C91.8533 280.61 91.4273 280.826 90.9233 280.982C90.4313 281.138 89.8793 281.216 89.2673 281.216ZM99.0756 281.216C98.3556 281.216 97.7136 281.102 97.1496 280.874C96.5856 280.634 96.1056 280.304 95.7096 279.884C95.3256 279.452 95.0316 278.93 94.8276 278.318C94.6356 277.706 94.5396 277.022 94.5396 276.266C94.5396 275.522 94.6356 274.85 94.8276 274.25C95.0196 273.638 95.3016 273.116 95.6736 272.684C96.0576 272.252 96.5256 271.922 97.0776 271.694C97.6296 271.454 98.2596 271.334 98.9676 271.334C99.7476 271.334 100.414 271.466 100.966 271.73C101.53 271.994 101.986 272.348 102.334 272.792C102.694 273.236 102.952 273.752 103.108 274.34C103.276 274.916 103.36 275.522 103.36 276.158V276.95H97.2936V277.094C97.2936 277.718 97.4616 278.216 97.7976 278.588C98.1336 278.948 98.6616 279.128 99.3816 279.128C99.9336 279.128 100.384 279.02 100.732 278.804C101.08 278.576 101.404 278.306 101.704 277.994L103.036 279.65C102.616 280.142 102.064 280.526 101.38 280.802C100.708 281.078 99.9396 281.216 99.0756 281.216ZM99.0216 273.296C98.4816 273.296 98.0556 273.476 97.7436 273.836C97.4436 274.184 97.2936 274.652 97.2936 275.24V275.384H100.606V275.222C100.606 274.646 100.474 274.184 100.21 273.836C99.9576 273.476 99.5616 273.296 99.0216 273.296ZM115.075 279.416H114.985C114.901 279.656 114.787 279.884 114.643 280.1C114.511 280.316 114.337 280.508 114.121 280.676C113.905 280.844 113.647 280.976 113.347 281.072C113.059 281.168 112.723 281.216 112.339 281.216C111.367 281.216 110.629 280.898 110.125 280.262C109.633 279.614 109.387 278.69 109.387 277.49V271.55H112.051V277.256C112.051 277.832 112.153 278.276 112.357 278.588C112.561 278.9 112.909 279.056 113.401 279.056C113.605 279.056 113.809 279.026 114.013 278.966C114.217 278.906 114.397 278.822 114.553 278.714C114.709 278.594 114.835 278.45 114.931 278.282C115.027 278.114 115.075 277.916 115.075 277.688V271.55H117.739V281H115.075V279.416ZM120.218 271.55H122.882V273.134H122.972C123.104 272.606 123.404 272.174 123.872 271.838C124.352 271.502 124.898 271.334 125.51 271.334C126.71 271.334 127.616 271.754 128.228 272.594C128.84 273.434 129.146 274.658 129.146 276.266C129.146 277.874 128.84 279.104 128.228 279.956C127.616 280.796 126.71 281.216 125.51 281.216C125.198 281.216 124.904 281.168 124.628 281.072C124.352 280.988 124.1 280.868 123.872 280.712C123.656 280.544 123.47 280.352 123.314 280.136C123.158 279.908 123.044 279.668 122.972 279.416H122.882V284.6H120.218V271.55ZM124.628 279.056C125.132 279.056 125.546 278.882 125.87 278.534C126.206 278.174 126.374 277.694 126.374 277.094V275.456C126.374 274.856 126.206 274.382 125.87 274.034C125.546 273.674 125.132 273.494 124.628 273.494C124.124 273.494 123.704 273.62 123.368 273.872C123.044 274.112 122.882 274.448 122.882 274.88V277.67C122.882 278.102 123.044 278.444 123.368 278.696C123.704 278.936 124.124 279.056 124.628 279.056ZM133.815 281C132.903 281 132.231 280.778 131.799 280.334C131.379 279.89 131.169 279.248 131.169 278.408V267.68H133.833V278.93H135.021V281H133.815ZM140.452 281.216C139.756 281.216 139.132 281.102 138.58 280.874C138.04 280.646 137.578 280.316 137.194 279.884C136.822 279.452 136.534 278.93 136.33 278.318C136.126 277.706 136.024 277.022 136.024 276.266C136.024 275.51 136.126 274.826 136.33 274.214C136.534 273.602 136.822 273.086 137.194 272.666C137.578 272.234 138.04 271.904 138.58 271.676C139.132 271.448 139.756 271.334 140.452 271.334C141.148 271.334 141.766 271.448 142.306 271.676C142.858 271.904 143.32 272.234 143.692 272.666C144.076 273.086 144.37 273.602 144.574 274.214C144.778 274.826 144.88 275.51 144.88 276.266C144.88 277.022 144.778 277.706 144.574 278.318C144.37 278.93 144.076 279.452 143.692 279.884C143.32 280.316 142.858 280.646 142.306 280.874C141.766 281.102 141.148 281.216 140.452 281.216ZM140.452 279.11C140.98 279.11 141.388 278.948 141.676 278.624C141.964 278.3 142.108 277.838 142.108 277.238V275.312C142.108 274.712 141.964 274.25 141.676 273.926C141.388 273.602 140.98 273.44 140.452 273.44C139.924 273.44 139.516 273.602 139.228 273.926C138.94 274.25 138.796 274.712 138.796 275.312V277.238C138.796 277.838 138.94 278.3 139.228 278.624C139.516 278.948 139.924 279.11 140.452 279.11ZM153.762 281C153.282 281 152.88 280.85 152.556 280.55C152.244 280.25 152.046 279.848 151.962 279.344H151.854C151.71 279.956 151.392 280.424 150.9 280.748C150.408 281.06 149.802 281.216 149.082 281.216C148.134 281.216 147.408 280.964 146.904 280.46C146.4 279.956 146.148 279.29 146.148 278.462C146.148 277.466 146.508 276.728 147.228 276.248C147.96 275.756 148.95 275.51 150.198 275.51H151.692V274.916C151.692 274.46 151.572 274.1 151.332 273.836C151.092 273.56 150.69 273.422 150.126 273.422C149.598 273.422 149.178 273.536 148.866 273.764C148.554 273.992 148.296 274.25 148.092 274.538L146.508 273.134C146.892 272.57 147.372 272.132 147.948 271.82C148.536 271.496 149.328 271.334 150.324 271.334C151.668 271.334 152.676 271.628 153.348 272.216C154.02 272.804 154.356 273.662 154.356 274.79V278.93H155.238V281H153.762ZM150.072 279.362C150.516 279.362 150.894 279.266 151.206 279.074C151.53 278.882 151.692 278.57 151.692 278.138V277.022H150.396C149.352 277.022 148.83 277.376 148.83 278.084V278.354C148.83 278.702 148.938 278.96 149.154 279.128C149.37 279.284 149.676 279.362 150.072 279.362ZM162.822 279.416H162.732C162.66 279.668 162.546 279.908 162.39 280.136C162.234 280.352 162.042 280.544 161.814 280.712C161.598 280.868 161.346 280.988 161.058 281.072C160.782 281.168 160.494 281.216 160.194 281.216C158.994 281.216 158.088 280.796 157.476 279.956C156.864 279.104 156.558 277.874 156.558 276.266C156.558 274.658 156.864 273.434 157.476 272.594C158.088 271.754 158.994 271.334 160.194 271.334C160.806 271.334 161.346 271.502 161.814 271.838C162.294 272.174 162.6 272.606 162.732 273.134H162.822V267.68H165.486V281H162.822V279.416ZM161.076 279.056C161.58 279.056 161.994 278.936 162.318 278.696C162.654 278.444 162.822 278.102 162.822 277.67V274.88C162.822 274.448 162.654 274.112 162.318 273.872C161.994 273.62 161.58 273.494 161.076 273.494C160.572 273.494 160.152 273.674 159.816 274.034C159.492 274.382 159.33 274.856 159.33 275.456V277.094C159.33 277.694 159.492 278.174 159.816 278.534C160.152 278.882 160.572 279.056 161.076 279.056ZM178.009 271.55H180.493L176.857 282.458C176.617 283.19 176.275 283.73 175.831 284.078C175.399 284.426 174.775 284.6 173.959 284.6H172.303V282.53H174.085L174.409 281.486L171.097 271.55H173.743L175.129 275.96L175.813 278.696H175.921L176.623 275.96L178.009 271.55ZM185.54 281.216C184.844 281.216 184.22 281.102 183.668 280.874C183.128 280.646 182.666 280.316 182.282 279.884C181.91 279.452 181.622 278.93 181.418 278.318C181.214 277.706 181.112 277.022 181.112 276.266C181.112 275.51 181.214 274.826 181.418 274.214C181.622 273.602 181.91 273.086 182.282 272.666C182.666 272.234 183.128 271.904 183.668 271.676C184.22 271.448 184.844 271.334 185.54 271.334C186.236 271.334 186.854 271.448 187.394 271.676C187.946 271.904 188.408 272.234 188.78 272.666C189.164 273.086 189.458 273.602 189.662 274.214C189.866 274.826 189.968 275.51 189.968 276.266C189.968 277.022 189.866 277.706 189.662 278.318C189.458 278.93 189.164 279.452 188.78 279.884C188.408 280.316 187.946 280.646 187.394 280.874C186.854 281.102 186.236 281.216 185.54 281.216ZM185.54 279.11C186.068 279.11 186.476 278.948 186.764 278.624C187.052 278.3 187.196 277.838 187.196 277.238V275.312C187.196 274.712 187.052 274.25 186.764 273.926C186.476 273.602 186.068 273.44 185.54 273.44C185.012 273.44 184.604 273.602 184.316 273.926C184.028 274.25 183.884 274.712 183.884 275.312V277.238C183.884 277.838 184.028 278.3 184.316 278.624C184.604 278.948 185.012 279.11 185.54 279.11ZM197.446 279.416H197.356C197.272 279.656 197.158 279.884 197.014 280.1C196.882 280.316 196.708 280.508 196.492 280.676C196.276 280.844 196.018 280.976 195.718 281.072C195.43 281.168 195.094 281.216 194.71 281.216C193.738 281.216 193 280.898 192.496 280.262C192.004 279.614 191.758 278.69 191.758 277.49V271.55H194.422V277.256C194.422 277.832 194.524 278.276 194.728 278.588C194.932 278.9 195.28 279.056 195.772 279.056C195.976 279.056 196.18 279.026 196.384 278.966C196.588 278.906 196.768 278.822 196.924 278.714C197.08 278.594 197.206 278.45 197.302 278.282C197.398 278.114 197.446 277.916 197.446 277.688V271.55H200.11V281H197.446V279.416ZM202.589 281V271.55H205.253V273.602H205.343C205.391 273.338 205.475 273.086 205.595 272.846C205.715 272.594 205.871 272.372 206.063 272.18C206.267 271.988 206.507 271.838 206.783 271.73C207.059 271.61 207.383 271.55 207.755 271.55H208.223V274.034H207.557C206.777 274.034 206.195 274.136 205.811 274.34C205.439 274.544 205.253 274.922 205.253 275.474V281H202.589ZM215.452 270.542C214.912 270.542 214.516 270.422 214.264 270.182C214.024 269.93 213.904 269.612 213.904 269.228V268.832C213.904 268.448 214.024 268.136 214.264 267.896C214.516 267.644 214.912 267.518 215.452 267.518C215.992 267.518 216.382 267.644 216.622 267.896C216.874 268.136 217 268.448 217 268.832V269.228C217 269.612 216.874 269.93 216.622 270.182C216.382 270.422 215.992 270.542 215.452 270.542ZM214.12 271.55H216.784V281H214.12V271.55ZM219.27 281V271.55H221.934V273.152H222.042C222.21 272.648 222.498 272.222 222.906 271.874C223.314 271.514 223.872 271.334 224.58 271.334C225.228 271.334 225.78 271.496 226.236 271.82C226.692 272.144 227.022 272.618 227.226 273.242H227.28C227.364 272.978 227.49 272.732 227.658 272.504C227.838 272.264 228.054 272.06 228.306 271.892C228.558 271.724 228.84 271.592 229.152 271.496C229.464 271.388 229.8 271.334 230.16 271.334C231.072 271.334 231.768 271.658 232.248 272.306C232.74 272.954 232.986 273.878 232.986 275.078V281H230.322V275.294C230.322 274.094 229.89 273.494 229.026 273.494C228.63 273.494 228.27 273.608 227.946 273.836C227.622 274.064 227.46 274.412 227.46 274.88V281H224.796V275.294C224.796 274.094 224.364 273.494 223.5 273.494C223.308 273.494 223.116 273.524 222.924 273.584C222.744 273.632 222.576 273.716 222.42 273.836C222.276 273.956 222.156 274.106 222.06 274.286C221.976 274.454 221.934 274.652 221.934 274.88V281H219.27ZM242.338 281C241.858 281 241.456 280.85 241.132 280.55C240.82 280.25 240.622 279.848 240.538 279.344H240.43C240.286 279.956 239.968 280.424 239.476 280.748C238.984 281.06 238.378 281.216 237.658 281.216C236.71 281.216 235.984 280.964 235.48 280.46C234.976 279.956 234.724 279.29 234.724 278.462C234.724 277.466 235.084 276.728 235.804 276.248C236.536 275.756 237.526 275.51 238.774 275.51H240.268V274.916C240.268 274.46 240.148 274.1 239.908 273.836C239.668 273.56 239.266 273.422 238.702 273.422C238.174 273.422 237.754 273.536 237.442 273.764C237.13 273.992 236.872 274.25 236.668 274.538L235.084 273.134C235.468 272.57 235.948 272.132 236.524 271.82C237.112 271.496 237.904 271.334 238.9 271.334C240.244 271.334 241.252 271.628 241.924 272.216C242.596 272.804 242.932 273.662 242.932 274.79V278.93H243.814V281H242.338ZM238.648 279.362C239.092 279.362 239.47 279.266 239.782 279.074C240.106 278.882 240.268 278.57 240.268 278.138V277.022H238.972C237.928 277.022 237.406 277.376 237.406 278.084V278.354C237.406 278.702 237.514 278.96 237.73 279.128C237.946 279.284 238.252 279.362 238.648 279.362ZM254.35 281.684C254.35 282.188 254.26 282.632 254.08 283.016C253.912 283.4 253.63 283.724 253.234 283.988C252.838 284.264 252.31 284.468 251.65 284.6C251.002 284.744 250.198 284.816 249.238 284.816C248.422 284.816 247.726 284.762 247.15 284.654C246.586 284.558 246.124 284.414 245.764 284.222C245.416 284.042 245.158 283.814 244.99 283.538C244.834 283.274 244.756 282.968 244.756 282.62C244.756 282.092 244.912 281.678 245.224 281.378C245.536 281.078 245.968 280.892 246.52 280.82V280.622C246.064 280.538 245.722 280.346 245.494 280.046C245.266 279.734 245.152 279.374 245.152 278.966C245.152 278.714 245.2 278.498 245.296 278.318C245.404 278.126 245.536 277.964 245.692 277.832C245.86 277.688 246.052 277.574 246.268 277.49C246.484 277.406 246.7 277.34 246.916 277.292V277.22C246.34 276.956 245.914 276.596 245.638 276.14C245.362 275.672 245.224 275.132 245.224 274.52C245.224 273.56 245.554 272.792 246.214 272.216C246.886 271.628 247.906 271.334 249.274 271.334C249.898 271.334 250.432 271.394 250.876 271.514V271.154C250.876 270.65 250.996 270.29 251.236 270.074C251.488 269.846 251.842 269.732 252.298 269.732H253.792V271.712H251.704V271.82C252.256 272.084 252.664 272.45 252.928 272.918C253.192 273.374 253.324 273.908 253.324 274.52C253.324 275.468 252.988 276.23 252.316 276.806C251.656 277.37 250.642 277.652 249.274 277.652C248.662 277.652 248.104 277.586 247.6 277.454C247.324 277.634 247.186 277.886 247.186 278.21C247.186 278.438 247.27 278.618 247.438 278.75C247.618 278.87 247.912 278.93 248.32 278.93H251.056C252.208 278.93 253.042 279.17 253.558 279.65C254.086 280.13 254.35 280.808 254.35 281.684ZM251.848 282.044C251.848 281.768 251.74 281.558 251.524 281.414C251.308 281.27 250.93 281.198 250.39 281.198H247.15C247.03 281.318 246.94 281.45 246.88 281.594C246.832 281.75 246.808 281.9 246.808 282.044C246.808 282.392 246.958 282.644 247.258 282.8C247.558 282.968 248.068 283.052 248.788 283.052H249.868C250.588 283.052 251.098 282.968 251.398 282.8C251.698 282.644 251.848 282.392 251.848 282.044ZM249.274 275.906C249.802 275.906 250.192 275.798 250.444 275.582C250.708 275.354 250.84 275.03 250.84 274.61V274.394C250.84 273.974 250.708 273.656 250.444 273.44C250.192 273.212 249.802 273.098 249.274 273.098C248.746 273.098 248.35 273.212 248.086 273.44C247.834 273.656 247.708 273.974 247.708 274.394V274.61C247.708 275.03 247.834 275.354 248.086 275.582C248.35 275.798 248.746 275.906 249.274 275.906ZM259.371 281.216C258.651 281.216 258.009 281.102 257.445 280.874C256.881 280.634 256.401 280.304 256.005 279.884C255.621 279.452 255.327 278.93 255.123 278.318C254.931 277.706 254.835 277.022 254.835 276.266C254.835 275.522 254.931 274.85 255.123 274.25C255.315 273.638 255.597 273.116 255.969 272.684C256.353 272.252 256.821 271.922 257.373 271.694C257.925 271.454 258.555 271.334 259.263 271.334C260.043 271.334 260.709 271.466 261.261 271.73C261.825 271.994 262.281 272.348 262.629 272.792C262.989 273.236 263.247 273.752 263.403 274.34C263.571 274.916 263.655 275.522 263.655 276.158V276.95H257.589V277.094C257.589 277.718 257.757 278.216 258.093 278.588C258.429 278.948 258.957 279.128 259.677 279.128C260.229 279.128 260.679 279.02 261.027 278.804C261.375 278.576 261.699 278.306 261.999 277.994L263.331 279.65C262.911 280.142 262.359 280.526 261.675 280.802C261.003 281.078 260.235 281.216 259.371 281.216ZM259.317 273.296C258.777 273.296 258.351 273.476 258.039 273.836C257.739 274.184 257.589 274.652 257.589 275.24V275.384H260.901V275.222C260.901 274.646 260.769 274.184 260.505 273.836C260.253 273.476 259.857 273.296 259.317 273.296ZM268.74 281.216C267.828 281.216 267.06 281.072 266.436 280.784C265.812 280.484 265.254 280.064 264.762 279.524L266.328 277.94C266.664 278.312 267.036 278.606 267.444 278.822C267.852 279.038 268.314 279.146 268.83 279.146C269.358 279.146 269.724 279.068 269.928 278.912C270.132 278.744 270.234 278.522 270.234 278.246C270.234 277.802 269.916 277.538 269.28 277.454L268.254 277.328C266.13 277.064 265.068 276.092 265.068 274.412C265.068 273.956 265.152 273.542 265.32 273.17C265.5 272.786 265.746 272.462 266.058 272.198C266.382 271.922 266.766 271.712 267.21 271.568C267.666 271.412 268.176 271.334 268.74 271.334C269.232 271.334 269.664 271.37 270.036 271.442C270.42 271.502 270.756 271.598 271.044 271.73C271.344 271.85 271.614 272.006 271.854 272.198C272.106 272.378 272.352 272.582 272.592 272.81L271.062 274.376C270.762 274.076 270.42 273.842 270.036 273.674C269.664 273.494 269.28 273.404 268.884 273.404C268.428 273.404 268.104 273.476 267.912 273.62C267.72 273.764 267.624 273.956 267.624 274.196C267.624 274.448 267.69 274.646 267.822 274.79C267.966 274.922 268.23 275.018 268.614 275.078L269.676 275.222C271.752 275.498 272.79 276.446 272.79 278.066C272.79 278.522 272.694 278.942 272.502 279.326C272.31 279.71 272.034 280.046 271.674 280.334C271.326 280.61 270.9 280.826 270.396 280.982C269.904 281.138 269.352 281.216 268.74 281.216ZM276.014 281.198C275.474 281.198 275.072 281.066 274.808 280.802C274.556 280.526 274.43 280.178 274.43 279.758V279.398C274.43 278.978 274.556 278.636 274.808 278.372C275.072 278.096 275.474 277.958 276.014 277.958C276.554 277.958 276.95 278.096 277.202 278.372C277.466 278.636 277.598 278.978 277.598 279.398V279.758C277.598 280.178 277.466 280.526 277.202 280.802C276.95 281.066 276.554 281.198 276.014 281.198Z" fill="#CCCCCC"/>
<path d="M168.5 140.755V204.5C168.5 205.959 167.921 207.358 166.889 208.389C165.858 209.421 164.459 210 163 210C161.541 210 160.142 209.421 159.111 208.389C158.079 207.358 157.5 205.959 157.5 204.5V140.755L139.35 158.905C138.292 159.799 136.935 160.261 135.55 160.198C134.166 160.135 132.857 159.552 131.884 158.565C130.912 157.578 130.347 156.261 130.304 154.876C130.26 153.491 130.741 152.141 131.65 151.095L159.15 123.595C160.178 122.587 161.56 122.023 163 122.023C164.44 122.023 165.822 122.587 166.85 123.595L194.35 151.095C194.929 151.584 195.401 152.188 195.735 152.868C196.07 153.548 196.261 154.289 196.295 155.046C196.33 155.803 196.207 156.56 195.936 157.267C195.664 157.975 195.249 158.618 194.717 159.158C194.185 159.698 193.547 160.122 192.844 160.403C192.14 160.685 191.386 160.818 190.628 160.794C189.871 160.77 189.127 160.59 188.442 160.265C187.757 159.94 187.147 159.477 186.65 158.905L168.5 140.7V140.755ZM113.5 204.5C113.5 203.041 114.079 201.643 115.111 200.611C116.142 199.58 117.541 199 119 199C120.459 199 121.858 199.58 122.889 200.611C123.921 201.643 124.5 203.041 124.5 204.5V221H201.5V204.5C201.5 203.041 202.079 201.643 203.111 200.611C204.142 199.58 205.541 199 207 199C208.459 199 209.858 199.58 210.889 200.611C211.921 201.643 212.5 203.041 212.5 204.5V221C212.5 223.918 211.341 226.715 209.278 228.778C207.215 230.841 204.417 232 201.5 232H124.5C121.583 232 118.785 230.841 116.722 228.778C114.659 226.715 113.5 223.918 113.5 221V204.5Z" fill="#CCCCCC"/>
</svg>
