<svg width="439" height="511" viewBox="0 0 439 511" fill="none" xmlns="http://www.w3.org/2000/svg">
<rect x="10.8371" y="97.0614" width="325.417" height="425.814" rx="10.5" transform="rotate(-15 10.8371 97.0614)" fill="#F2F8FF" stroke="#B0B5C8" stroke-width="3"/>
<rect x="59.5" y="37.5" width="325.417" height="425.814" rx="10.5" fill="#F2F8FF" stroke="#B0B5C8" stroke-width="3"/>
<rect x="122.046" y="1.83712" width="325.417" height="425.814" rx="10.5" transform="rotate(15 122.046 1.83712)" fill="#F2F8FF" stroke="#B0B5C8" stroke-width="3"/>
<path d="M101.654 342V329.436H107.054C108.218 329.436 109.118 329.778 109.754 330.462C110.39 331.146 110.708 332.064 110.708 333.216C110.708 334.368 110.39 335.286 109.754 335.97C109.118 336.654 108.218 336.996 107.054 336.996H103.688V342H101.654ZM103.688 335.214H106.928C107.444 335.214 107.846 335.082 108.134 334.818C108.422 334.542 108.566 334.152 108.566 333.648V332.784C108.566 332.28 108.422 331.896 108.134 331.632C107.846 331.356 107.444 331.218 106.928 331.218H103.688V335.214ZM114.794 342C114.122 342 113.618 341.832 113.282 341.496C112.958 341.148 112.796 340.668 112.796 340.056V328.68H114.758V340.398H116.054V342H114.794ZM121.6 342.216C120.928 342.216 120.328 342.102 119.8 341.874C119.272 341.646 118.822 341.322 118.45 340.902C118.078 340.47 117.79 339.954 117.586 339.354C117.394 338.742 117.298 338.064 117.298 337.32C117.298 336.576 117.394 335.904 117.586 335.304C117.79 334.692 118.078 334.176 118.45 333.756C118.822 333.324 119.272 332.994 119.8 332.766C120.328 332.538 120.928 332.424 121.6 332.424C122.284 332.424 122.884 332.544 123.4 332.784C123.928 333.024 124.366 333.36 124.714 333.792C125.062 334.212 125.32 334.704 125.488 335.268C125.668 335.832 125.758 336.438 125.758 337.086V337.824H119.332V338.13C119.332 338.85 119.542 339.444 119.962 339.912C120.394 340.368 121.006 340.596 121.798 340.596C122.374 340.596 122.86 340.47 123.256 340.218C123.652 339.966 123.988 339.624 124.264 339.192L125.416 340.326C125.068 340.902 124.564 341.364 123.904 341.712C123.244 342.048 122.476 342.216 121.6 342.216ZM121.6 333.954C121.264 333.954 120.952 334.014 120.664 334.134C120.388 334.254 120.148 334.422 119.944 334.638C119.752 334.854 119.602 335.112 119.494 335.412C119.386 335.712 119.332 336.042 119.332 336.402V336.528H123.688V336.348C123.688 335.628 123.502 335.052 123.13 334.62C122.758 334.176 122.248 333.954 121.6 333.954ZM134.788 342C134.272 342 133.876 341.856 133.6 341.568C133.324 341.268 133.156 340.89 133.096 340.434H133.006C132.826 341.022 132.496 341.466 132.016 341.766C131.536 342.066 130.954 342.216 130.27 342.216C129.298 342.216 128.548 341.964 128.02 341.46C127.504 340.956 127.246 340.278 127.246 339.426C127.246 338.49 127.582 337.788 128.254 337.32C128.938 336.852 129.934 336.618 131.242 336.618H132.934V335.826C132.934 335.25 132.778 334.806 132.466 334.494C132.154 334.182 131.668 334.026 131.008 334.026C130.456 334.026 130.006 334.146 129.658 334.386C129.31 334.626 129.016 334.932 128.776 335.304L127.606 334.242C127.918 333.714 128.356 333.282 128.92 332.946C129.484 332.598 130.222 332.424 131.134 332.424C132.346 332.424 133.276 332.706 133.924 333.27C134.572 333.834 134.896 334.644 134.896 335.7V340.398H135.886V342H134.788ZM130.828 340.722C131.44 340.722 131.944 340.59 132.34 340.326C132.736 340.05 132.934 339.684 132.934 339.228V337.878H131.278C129.922 337.878 129.244 338.298 129.244 339.138V339.462C129.244 339.882 129.382 340.2 129.658 340.416C129.946 340.62 130.336 340.722 130.828 340.722ZM140.779 342.216C139.891 342.216 139.147 342.06 138.547 341.748C137.947 341.436 137.425 341.004 136.981 340.452L138.241 339.3C138.589 339.72 138.973 340.05 139.393 340.29C139.825 340.518 140.323 340.632 140.887 340.632C141.463 340.632 141.889 340.524 142.165 340.308C142.453 340.08 142.597 339.768 142.597 339.372C142.597 339.072 142.495 338.82 142.291 338.616C142.099 338.4 141.757 338.262 141.265 338.202L140.401 338.094C139.441 337.974 138.685 337.698 138.133 337.266C137.593 336.822 137.323 336.168 137.323 335.304C137.323 334.848 137.407 334.446 137.575 334.098C137.743 333.738 137.977 333.438 138.277 333.198C138.589 332.946 138.955 332.754 139.375 332.622C139.807 332.49 140.281 332.424 140.797 332.424C141.637 332.424 142.321 332.556 142.849 332.82C143.389 333.084 143.869 333.45 144.289 333.918L143.083 335.07C142.843 334.782 142.525 334.536 142.129 334.332C141.745 334.116 141.301 334.008 140.797 334.008C140.257 334.008 139.855 334.116 139.591 334.332C139.339 334.548 139.213 334.83 139.213 335.178C139.213 335.538 139.327 335.808 139.555 335.988C139.783 336.168 140.149 336.3 140.653 336.384L141.517 336.492C142.549 336.648 143.299 336.954 143.767 337.41C144.247 337.854 144.487 338.454 144.487 339.21C144.487 339.666 144.397 340.08 144.217 340.452C144.049 340.812 143.803 341.124 143.479 341.388C143.155 341.652 142.765 341.856 142.309 342C141.853 342.144 141.343 342.216 140.779 342.216ZM150.376 342.216C149.704 342.216 149.104 342.102 148.576 341.874C148.048 341.646 147.598 341.322 147.226 340.902C146.854 340.47 146.566 339.954 146.362 339.354C146.17 338.742 146.074 338.064 146.074 337.32C146.074 336.576 146.17 335.904 146.362 335.304C146.566 334.692 146.854 334.176 147.226 333.756C147.598 333.324 148.048 332.994 148.576 332.766C149.104 332.538 149.704 332.424 150.376 332.424C151.06 332.424 151.66 332.544 152.176 332.784C152.704 333.024 153.142 333.36 153.49 333.792C153.838 334.212 154.096 334.704 154.264 335.268C154.444 335.832 154.534 336.438 154.534 337.086V337.824H148.108V338.13C148.108 338.85 148.318 339.444 148.738 339.912C149.17 340.368 149.782 340.596 150.574 340.596C151.15 340.596 151.636 340.47 152.032 340.218C152.428 339.966 152.764 339.624 153.04 339.192L154.192 340.326C153.844 340.902 153.34 341.364 152.68 341.712C152.02 342.048 151.252 342.216 150.376 342.216ZM150.376 333.954C150.04 333.954 149.728 334.014 149.44 334.134C149.164 334.254 148.924 334.422 148.72 334.638C148.528 334.854 148.378 335.112 148.27 335.412C148.162 335.712 148.108 336.042 148.108 336.402V336.528H152.464V336.348C152.464 335.628 152.278 335.052 151.906 334.62C151.534 334.176 151.024 333.954 150.376 333.954ZM166.63 340.452H166.558C166.474 340.68 166.36 340.902 166.216 341.118C166.084 341.334 165.91 341.526 165.694 341.694C165.49 341.85 165.238 341.976 164.938 342.072C164.65 342.168 164.314 342.216 163.93 342.216C162.958 342.216 162.202 341.904 161.662 341.28C161.134 340.656 160.87 339.762 160.87 338.598V332.64H162.832V338.346C162.832 339.798 163.432 340.524 164.632 340.524C164.884 340.524 165.13 340.494 165.37 340.434C165.61 340.362 165.82 340.26 166 340.128C166.192 339.996 166.342 339.828 166.45 339.624C166.57 339.42 166.63 339.18 166.63 338.904V332.64H168.592V342H166.63V340.452ZM171.401 332.64H173.363V334.188H173.453C173.657 333.624 173.987 333.192 174.443 332.892C174.911 332.58 175.457 332.424 176.081 332.424C177.269 332.424 178.187 332.856 178.835 333.72C179.483 334.572 179.807 335.772 179.807 337.32C179.807 338.868 179.483 340.074 178.835 340.938C178.187 341.79 177.269 342.216 176.081 342.216C175.457 342.216 174.911 342.06 174.443 341.748C173.987 341.436 173.657 341.004 173.453 340.452H173.363V345.6H171.401V332.64ZM175.487 340.524C176.171 340.524 176.717 340.308 177.125 339.876C177.533 339.432 177.737 338.85 177.737 338.13V336.51C177.737 335.79 177.533 335.214 177.125 334.782C176.717 334.338 176.171 334.116 175.487 334.116C174.887 334.116 174.383 334.266 173.975 334.566C173.567 334.854 173.363 335.238 173.363 335.718V338.922C173.363 339.402 173.567 339.792 173.975 340.092C174.383 340.38 174.887 340.524 175.487 340.524ZM184.051 342C183.379 342 182.875 341.832 182.539 341.496C182.215 341.148 182.053 340.668 182.053 340.056V328.68H184.015V340.398H185.311V342H184.051ZM190.858 342.216C190.21 342.216 189.616 342.102 189.076 341.874C188.548 341.646 188.098 341.322 187.726 340.902C187.354 340.47 187.066 339.954 186.862 339.354C186.658 338.742 186.556 338.064 186.556 337.32C186.556 336.576 186.658 335.904 186.862 335.304C187.066 334.692 187.354 334.176 187.726 333.756C188.098 333.324 188.548 332.994 189.076 332.766C189.616 332.538 190.21 332.424 190.858 332.424C191.506 332.424 192.094 332.538 192.622 332.766C193.162 332.994 193.618 333.324 193.99 333.756C194.362 334.176 194.65 334.692 194.854 335.304C195.058 335.904 195.16 336.576 195.16 337.32C195.16 338.064 195.058 338.742 194.854 339.354C194.65 339.954 194.362 340.47 193.99 340.902C193.618 341.322 193.162 341.646 192.622 341.874C192.094 342.102 191.506 342.216 190.858 342.216ZM190.858 340.596C191.53 340.596 192.07 340.392 192.478 339.984C192.886 339.564 193.09 338.94 193.09 338.112V336.528C193.09 335.7 192.886 335.082 192.478 334.674C192.07 334.254 191.53 334.044 190.858 334.044C190.186 334.044 189.646 334.254 189.238 334.674C188.83 335.082 188.626 335.7 188.626 336.528V338.112C188.626 338.94 188.83 339.564 189.238 339.984C189.646 340.392 190.186 340.596 190.858 340.596ZM204.204 342C203.688 342 203.292 341.856 203.016 341.568C202.74 341.268 202.572 340.89 202.512 340.434H202.422C202.242 341.022 201.912 341.466 201.432 341.766C200.952 342.066 200.37 342.216 199.686 342.216C198.714 342.216 197.964 341.964 197.436 341.46C196.92 340.956 196.662 340.278 196.662 339.426C196.662 338.49 196.998 337.788 197.67 337.32C198.354 336.852 199.35 336.618 200.658 336.618H202.35V335.826C202.35 335.25 202.194 334.806 201.882 334.494C201.57 334.182 201.084 334.026 200.424 334.026C199.872 334.026 199.422 334.146 199.074 334.386C198.726 334.626 198.432 334.932 198.192 335.304L197.022 334.242C197.334 333.714 197.772 333.282 198.336 332.946C198.9 332.598 199.638 332.424 200.55 332.424C201.762 332.424 202.692 332.706 203.34 333.27C203.988 333.834 204.312 334.644 204.312 335.7V340.398H205.302V342H204.204ZM200.244 340.722C200.856 340.722 201.36 340.59 201.756 340.326C202.152 340.05 202.35 339.684 202.35 339.228V337.878H200.694C199.338 337.878 198.66 338.298 198.66 339.138V339.462C198.66 339.882 198.798 340.2 199.074 340.416C199.362 340.62 199.752 340.722 200.244 340.722ZM213.111 340.452H213.021C212.817 341.004 212.481 341.436 212.013 341.748C211.557 342.06 211.017 342.216 210.393 342.216C209.205 342.216 208.287 341.79 207.639 340.938C206.991 340.074 206.667 338.868 206.667 337.32C206.667 335.772 206.991 334.572 207.639 333.72C208.287 332.856 209.205 332.424 210.393 332.424C211.017 332.424 211.557 332.58 212.013 332.892C212.481 333.192 212.817 333.624 213.021 334.188H213.111V328.68H215.073V342H213.111V340.452ZM210.987 340.524C211.587 340.524 212.091 340.38 212.499 340.092C212.907 339.792 213.111 339.402 213.111 338.922V335.718C213.111 335.238 212.907 334.854 212.499 334.566C212.091 334.266 211.587 334.116 210.987 334.116C210.303 334.116 209.757 334.338 209.349 334.782C208.941 335.214 208.737 335.79 208.737 336.51V338.13C208.737 338.85 208.941 339.432 209.349 339.876C209.757 340.308 210.303 340.524 210.987 340.524ZM224.724 342C224.04 342 223.524 341.826 223.176 341.478C222.828 341.118 222.654 340.614 222.654 339.966V334.242H221.196V332.64H221.988C222.312 332.64 222.534 332.568 222.654 332.424C222.786 332.28 222.852 332.046 222.852 331.722V330.084H224.616V332.64H226.578V334.242H224.616V340.398H226.434V342H224.724ZM228.706 328.68H230.668V334.188H230.758C230.962 333.684 231.268 333.264 231.676 332.928C232.096 332.592 232.666 332.424 233.386 332.424C234.346 332.424 235.09 332.742 235.618 333.378C236.158 334.002 236.428 334.896 236.428 336.06V342H234.466V336.294C234.466 334.842 233.878 334.116 232.702 334.116C232.45 334.116 232.198 334.152 231.946 334.224C231.706 334.284 231.49 334.38 231.298 334.512C231.106 334.644 230.95 334.812 230.83 335.016C230.722 335.22 230.668 335.454 230.668 335.718V342H228.706V328.68ZM239.147 342V332.64H241.109V334.44H241.199C241.331 333.96 241.607 333.54 242.027 333.18C242.447 332.82 243.029 332.64 243.773 332.64H244.295V334.53H243.521C242.741 334.53 242.141 334.656 241.721 334.908C241.313 335.16 241.109 335.532 241.109 336.024V342H239.147ZM249.622 342.216C248.95 342.216 248.35 342.102 247.822 341.874C247.294 341.646 246.844 341.322 246.472 340.902C246.1 340.47 245.812 339.954 245.608 339.354C245.416 338.742 245.32 338.064 245.32 337.32C245.32 336.576 245.416 335.904 245.608 335.304C245.812 334.692 246.1 334.176 246.472 333.756C246.844 333.324 247.294 332.994 247.822 332.766C248.35 332.538 248.95 332.424 249.622 332.424C250.306 332.424 250.906 332.544 251.422 332.784C251.95 333.024 252.388 333.36 252.736 333.792C253.084 334.212 253.342 334.704 253.51 335.268C253.69 335.832 253.78 336.438 253.78 337.086V337.824H247.354V338.13C247.354 338.85 247.564 339.444 247.984 339.912C248.416 340.368 249.028 340.596 249.82 340.596C250.396 340.596 250.882 340.47 251.278 340.218C251.674 339.966 252.01 339.624 252.286 339.192L253.438 340.326C253.09 340.902 252.586 341.364 251.926 341.712C251.266 342.048 250.498 342.216 249.622 342.216ZM249.622 333.954C249.286 333.954 248.974 334.014 248.686 334.134C248.41 334.254 248.17 334.422 247.966 334.638C247.774 334.854 247.624 335.112 247.516 335.412C247.408 335.712 247.354 336.042 247.354 336.402V336.528H251.71V336.348C251.71 335.628 251.524 335.052 251.152 334.62C250.78 334.176 250.27 333.954 249.622 333.954ZM259.624 342.216C258.952 342.216 258.352 342.102 257.824 341.874C257.296 341.646 256.846 341.322 256.474 340.902C256.102 340.47 255.814 339.954 255.61 339.354C255.418 338.742 255.322 338.064 255.322 337.32C255.322 336.576 255.418 335.904 255.61 335.304C255.814 334.692 256.102 334.176 256.474 333.756C256.846 333.324 257.296 332.994 257.824 332.766C258.352 332.538 258.952 332.424 259.624 332.424C260.308 332.424 260.908 332.544 261.424 332.784C261.952 333.024 262.39 333.36 262.738 333.792C263.086 334.212 263.344 334.704 263.512 335.268C263.692 335.832 263.782 336.438 263.782 337.086V337.824H257.356V338.13C257.356 338.85 257.566 339.444 257.986 339.912C258.418 340.368 259.03 340.596 259.822 340.596C260.398 340.596 260.884 340.47 261.28 340.218C261.676 339.966 262.012 339.624 262.288 339.192L263.44 340.326C263.092 340.902 262.588 341.364 261.928 341.712C261.268 342.048 260.5 342.216 259.624 342.216ZM259.624 333.954C259.288 333.954 258.976 334.014 258.688 334.134C258.412 334.254 258.172 334.422 257.968 334.638C257.776 334.854 257.626 335.112 257.518 335.412C257.41 335.712 257.356 336.042 257.356 336.402V336.528H261.712V336.348C261.712 335.628 261.526 335.052 261.154 334.62C260.782 334.176 260.272 333.954 259.624 333.954ZM271.198 330.966C270.79 330.966 270.49 330.87 270.298 330.678C270.118 330.486 270.028 330.24 270.028 329.94V329.634C270.028 329.334 270.118 329.088 270.298 328.896C270.49 328.704 270.79 328.608 271.198 328.608C271.606 328.608 271.9 328.704 272.08 328.896C272.26 329.088 272.35 329.334 272.35 329.634V329.94C272.35 330.24 272.26 330.486 272.08 330.678C271.9 330.87 271.606 330.966 271.198 330.966ZM270.208 332.64H272.17V342H270.208V332.64ZM274.971 342V332.64H276.933V334.188H277.023C277.119 333.948 277.233 333.72 277.365 333.504C277.509 333.288 277.677 333.102 277.869 332.946C278.073 332.778 278.307 332.652 278.571 332.568C278.847 332.472 279.165 332.424 279.525 332.424C280.161 332.424 280.725 332.58 281.217 332.892C281.709 333.204 282.069 333.684 282.297 334.332H282.351C282.519 333.804 282.843 333.354 283.323 332.982C283.803 332.61 284.421 332.424 285.177 332.424C286.113 332.424 286.839 332.742 287.355 333.378C287.871 334.002 288.129 334.896 288.129 336.06V342H286.167V336.294C286.167 335.574 286.029 335.034 285.753 334.674C285.477 334.302 285.039 334.116 284.439 334.116C284.187 334.116 283.947 334.152 283.719 334.224C283.491 334.284 283.287 334.38 283.107 334.512C282.939 334.644 282.801 334.812 282.693 335.016C282.585 335.22 282.531 335.454 282.531 335.718V342H280.569V336.294C280.569 334.842 279.999 334.116 278.859 334.116C278.619 334.116 278.379 334.152 278.139 334.224C277.911 334.284 277.707 334.38 277.527 334.512C277.347 334.644 277.203 334.812 277.095 335.016C276.987 335.22 276.933 335.454 276.933 335.718V342H274.971ZM297.702 342C297.186 342 296.79 341.856 296.514 341.568C296.238 341.268 296.07 340.89 296.01 340.434H295.92C295.74 341.022 295.41 341.466 294.93 341.766C294.45 342.066 293.868 342.216 293.184 342.216C292.212 342.216 291.462 341.964 290.934 341.46C290.418 340.956 290.16 340.278 290.16 339.426C290.16 338.49 290.496 337.788 291.168 337.32C291.852 336.852 292.848 336.618 294.156 336.618H295.848V335.826C295.848 335.25 295.692 334.806 295.38 334.494C295.068 334.182 294.582 334.026 293.922 334.026C293.37 334.026 292.92 334.146 292.572 334.386C292.224 334.626 291.93 334.932 291.69 335.304L290.52 334.242C290.832 333.714 291.27 333.282 291.834 332.946C292.398 332.598 293.136 332.424 294.048 332.424C295.26 332.424 296.19 332.706 296.838 333.27C297.486 333.834 297.81 334.644 297.81 335.7V340.398H298.8V342H297.702ZM293.742 340.722C294.354 340.722 294.858 340.59 295.254 340.326C295.65 340.05 295.848 339.684 295.848 339.228V337.878H294.192C292.836 337.878 292.158 338.298 292.158 339.138V339.462C292.158 339.882 292.296 340.2 292.572 340.416C292.86 340.62 293.25 340.722 293.742 340.722ZM308.931 342.882C308.931 343.854 308.559 344.586 307.815 345.078C307.071 345.57 305.859 345.816 304.179 345.816C303.411 345.816 302.757 345.762 302.217 345.654C301.689 345.558 301.251 345.414 300.903 345.222C300.567 345.03 300.321 344.796 300.165 344.52C300.009 344.244 299.931 343.926 299.931 343.566C299.931 343.05 300.069 342.648 300.345 342.36C300.633 342.072 301.029 341.874 301.533 341.766V341.568C300.825 341.34 300.471 340.86 300.471 340.128C300.471 339.648 300.633 339.282 300.957 339.03C301.281 338.766 301.671 338.58 302.127 338.472V338.4C301.575 338.136 301.149 337.77 300.849 337.302C300.561 336.822 300.417 336.264 300.417 335.628C300.417 334.668 300.735 333.894 301.371 333.306C302.019 332.718 302.943 332.424 304.143 332.424C304.803 332.424 305.367 332.52 305.835 332.712V332.46C305.835 332.04 305.931 331.716 306.123 331.488C306.327 331.248 306.639 331.128 307.059 331.128H308.499V332.712H306.591V333.09C307.011 333.366 307.335 333.726 307.563 334.17C307.791 334.602 307.905 335.088 307.905 335.628C307.905 336.576 307.581 337.344 306.933 337.932C306.285 338.508 305.361 338.796 304.161 338.796C303.705 338.796 303.297 338.748 302.937 338.652C302.697 338.736 302.487 338.856 302.307 339.012C302.127 339.156 302.037 339.348 302.037 339.588C302.037 339.84 302.151 340.02 302.379 340.128C302.607 340.236 302.931 340.29 303.351 340.29H305.655C306.807 340.29 307.641 340.524 308.157 340.992C308.673 341.448 308.931 342.078 308.931 342.882ZM307.095 343.098C307.095 342.774 306.969 342.516 306.717 342.324C306.477 342.132 306.033 342.036 305.385 342.036H302.217C301.785 342.288 301.569 342.648 301.569 343.116C301.569 343.5 301.719 343.806 302.019 344.034C302.331 344.274 302.853 344.394 303.585 344.394H304.809C306.333 344.394 307.095 343.962 307.095 343.098ZM304.161 337.374C304.737 337.374 305.181 337.248 305.493 336.996C305.817 336.732 305.979 336.33 305.979 335.79V335.43C305.979 334.89 305.817 334.494 305.493 334.242C305.181 333.978 304.737 333.846 304.161 333.846C303.585 333.846 303.135 333.978 302.811 334.242C302.499 334.494 302.343 334.89 302.343 335.43V335.79C302.343 336.33 302.499 336.732 302.811 336.996C303.135 337.248 303.585 337.374 304.161 337.374ZM313.958 342.216C313.286 342.216 312.686 342.102 312.158 341.874C311.63 341.646 311.18 341.322 310.808 340.902C310.436 340.47 310.148 339.954 309.944 339.354C309.752 338.742 309.656 338.064 309.656 337.32C309.656 336.576 309.752 335.904 309.944 335.304C310.148 334.692 310.436 334.176 310.808 333.756C311.18 333.324 311.63 332.994 312.158 332.766C312.686 332.538 313.286 332.424 313.958 332.424C314.642 332.424 315.242 332.544 315.758 332.784C316.286 333.024 316.724 333.36 317.072 333.792C317.42 334.212 317.678 334.704 317.846 335.268C318.026 335.832 318.116 336.438 318.116 337.086V337.824H311.69V338.13C311.69 338.85 311.9 339.444 312.32 339.912C312.752 340.368 313.364 340.596 314.156 340.596C314.732 340.596 315.218 340.47 315.614 340.218C316.01 339.966 316.346 339.624 316.622 339.192L317.774 340.326C317.426 340.902 316.922 341.364 316.262 341.712C315.602 342.048 314.834 342.216 313.958 342.216ZM313.958 333.954C313.622 333.954 313.31 334.014 313.022 334.134C312.746 334.254 312.506 334.422 312.302 334.638C312.11 334.854 311.96 335.112 311.852 335.412C311.744 335.712 311.69 336.042 311.69 336.402V336.528H316.046V336.348C316.046 335.628 315.86 335.052 315.488 334.62C315.116 334.176 314.606 333.954 313.958 333.954ZM323.258 342.216C322.37 342.216 321.626 342.06 321.026 341.748C320.426 341.436 319.904 341.004 319.46 340.452L320.72 339.3C321.068 339.72 321.452 340.05 321.872 340.29C322.304 340.518 322.802 340.632 323.366 340.632C323.942 340.632 324.368 340.524 324.644 340.308C324.932 340.08 325.076 339.768 325.076 339.372C325.076 339.072 324.974 338.82 324.77 338.616C324.578 338.4 324.236 338.262 323.744 338.202L322.88 338.094C321.92 337.974 321.164 337.698 320.612 337.266C320.072 336.822 319.802 336.168 319.802 335.304C319.802 334.848 319.886 334.446 320.054 334.098C320.222 333.738 320.456 333.438 320.756 333.198C321.068 332.946 321.434 332.754 321.854 332.622C322.286 332.49 322.76 332.424 323.276 332.424C324.116 332.424 324.8 332.556 325.328 332.82C325.868 333.084 326.348 333.45 326.768 333.918L325.562 335.07C325.322 334.782 325.004 334.536 324.608 334.332C324.224 334.116 323.78 334.008 323.276 334.008C322.736 334.008 322.334 334.116 322.07 334.332C321.818 334.548 321.692 334.83 321.692 335.178C321.692 335.538 321.806 335.808 322.034 335.988C322.262 336.168 322.628 336.3 323.132 336.384L323.996 336.492C325.028 336.648 325.778 336.954 326.246 337.41C326.726 337.854 326.966 338.454 326.966 339.21C326.966 339.666 326.876 340.08 326.696 340.452C326.528 340.812 326.282 341.124 325.958 341.388C325.634 341.652 325.244 341.856 324.788 342C324.332 342.144 323.822 342.216 323.258 342.216ZM330.283 342.216C329.839 342.216 329.509 342.102 329.293 341.874C329.077 341.634 328.969 341.34 328.969 340.992V340.722C328.969 340.374 329.077 340.086 329.293 339.858C329.509 339.618 329.839 339.498 330.283 339.498C330.727 339.498 331.057 339.618 331.273 339.858C331.489 340.086 331.597 340.374 331.597 340.722V340.992C331.597 341.34 331.489 341.634 331.273 341.874C331.057 342.102 330.727 342.216 330.283 342.216Z" fill="#A5B8CD"/>
<circle cx="216" cy="231" r="70.5" stroke="#A5B8CD" stroke-width="3"/>
<circle cx="216" cy="241" r="28.5" stroke="#A5B8CD" stroke-width="3"/>
<rect x="180" y="211" width="72" height="39" fill="#F2F8FF"/>
<circle cx="185" cy="214" r="11.5" stroke="#A5B8CD" stroke-width="3"/>
<circle cx="247" cy="214" r="11.5" stroke="#A5B8CD" stroke-width="3"/>
</svg>
